<svg width="101" height="84" viewBox="0 0 101 84" fill="none" xmlns="http://www.w3.org/2000/svg">
<path d="M55.8155 77.3123C55.8155 77.2143 55.839 77.1405 55.886 77.0907C55.933 77.0382 55.9992 77.0112 56.0859 77.0112C56.1755 77.0112 56.2446 77.0382 56.2916 77.0907C56.3415 77.1405 56.368 77.2143 56.368 77.3123C56.368 77.4118 56.3415 77.4871 56.2916 77.5396C56.2446 77.5879 56.1755 77.6135 56.0859 77.6135C56.0065 77.6135 55.9419 77.5907 55.8919 77.5453C55.8405 77.4998 55.8155 77.4231 55.8155 77.3123Z" fill="#F6F6E9"/>
<path d="M58.9842 30.5568C58.9872 30.5938 58.9872 30.6278 58.9842 30.6648C58.9784 31.821 58.9534 33.0114 58.9181 34.206C58.8961 34.8835 58.8711 35.5625 58.8447 36.2401C58.7873 37.6918 58.7168 39.1307 58.6389 40.5071C58.5478 42.108 58.4523 43.6293 58.3539 44.9872C58.2525 46.4276 58.1526 47.6903 58.0732 48.6832C57.9424 50.2571 57.0623 51.6761 55.6884 52.5341C51.6931 55.0327 45.5834 57.9375 42.5521 59.3324C41.3413 59.8906 39.9556 59.983 38.6817 59.5753C33.5785 57.9418 26.9251 54.8097 23.2252 52.9886C21.4928 52.1392 20.3907 50.429 20.3701 48.5511C20.3584 47.5526 20.3554 46.5597 20.3569 45.571C20.3628 43.8153 20.3878 42.0895 20.426 40.4446C20.4392 39.8778 20.451 39.321 20.4686 38.7798C20.495 37.8011 20.5274 36.8665 20.5597 35.983C20.5714 35.7315 20.5788 35.483 20.5876 35.2401C20.6023 34.9048 20.6141 34.581 20.6273 34.2642C20.6655 33.3622 20.7052 32.5341 20.7434 31.7997C20.7639 31.375 20.7845 30.9815 20.8036 30.6222C20.8095 30.5426 20.8124 30.4673 20.8154 30.3906C20.9006 28.8935 21.6632 27.5071 22.9063 26.6108C27.0133 23.6477 33.7063 20.5114 37.0169 19.0369C38.2849 18.473 39.7352 18.4162 41.0445 18.8949C48.0784 21.473 53.546 24.4588 56.5083 26.2287C57.9131 27.071 58.8167 28.4943 58.9637 30.0668C58.9784 30.2287 58.9872 30.3935 58.9842 30.5568Z" fill="#F6F6E9"/>
<path d="M59.2546 34.5682C59.2502 35.0128 59.2487 35.4957 59.2443 36.0156C59.2355 36.5341 59.2046 37.0895 59.1797 37.6818L59.0915 39.5213C59.0636 40.1335 59.0327 40.7486 58.9886 41.3608L58.7521 45.0383L58.4685 48.713C58.3612 50.0312 57.7352 51.2997 56.7449 52.2074C56.498 52.4332 56.2321 52.6434 55.947 52.8224L55.133 53.3196L54.313 53.7997L53.4872 54.2684C52.3823 54.8849 51.267 55.4772 50.1414 56.0525C47.8918 57.2045 45.6142 58.2997 43.3205 59.3608C43.0267 59.4929 42.7607 59.625 42.4404 59.7571C42.1274 59.8821 41.8027 59.9801 41.472 60.0469C40.8093 60.1818 40.1217 60.2003 39.4531 60.0966C39.121 60.0469 38.7845 59.9616 38.476 59.8579L37.5693 59.554C36.9698 59.3423 36.3733 59.1264 35.7796 58.9005C33.4066 57.9957 31.0805 56.9943 28.7809 55.9432C27.6304 55.4176 26.4872 54.8807 25.3484 54.3338L23.6469 53.5042C23.3633 53.3636 23.0841 53.2301 22.7873 53.0653C22.5037 52.8949 22.2245 52.7102 21.9776 52.4943C21.4707 52.0724 21.0593 51.5483 20.7404 50.9829C20.4363 50.4091 20.2232 49.7855 20.1512 49.1434C20.1056 48.8224 20.1115 48.4957 20.11 48.196V47.2727L20.113 45.429C20.1703 40.5128 20.3466 35.6008 20.6214 30.6946C20.6361 30.3949 20.6581 30.071 20.7169 29.7599C20.7727 29.4474 20.8638 29.142 20.9799 28.8452C21.2077 28.2514 21.5545 27.7017 21.9865 27.2273C22.1995 26.9872 22.4434 26.7727 22.6991 26.5781C22.9563 26.3849 23.2163 26.2145 23.4764 26.0341C24.001 25.6832 24.5285 25.3409 25.0678 25.0142C27.219 23.7003 29.4539 22.5256 31.7168 21.4148C32.8482 20.8579 33.9884 20.3196 35.136 19.7954C35.7076 19.5327 36.2851 19.2741 36.8611 19.0213C37.44 18.7557 38.0689 18.5795 38.7111 18.5256C39.3517 18.4716 40.0026 18.5284 40.6198 18.696C40.9328 18.777 41.2267 18.902 41.5205 19.0113L42.4051 19.348C43.5806 19.8082 44.7488 20.2869 45.9037 20.7898C48.2136 21.7969 50.4853 22.8906 52.7026 24.0753C53.812 24.6676 54.9081 25.2798 55.9881 25.919C56.257 26.0809 56.5289 26.2358 56.789 26.4119C57.0476 26.5895 57.2856 26.7926 57.506 27.0113C57.9439 27.4517 58.3054 27.9687 58.5508 28.5327C58.8329 29.1733 58.9005 29.7031 58.9137 30.0454C58.9108 30.3934 58.8887 30.5639 58.8608 30.5639C58.8314 30.5639 58.7976 30.3934 58.7565 30.0596C58.6992 29.7315 58.6051 29.2329 58.3318 28.6221C58.0952 28.0866 57.7499 27.598 57.3297 27.1804C57.1181 26.973 56.8903 26.7812 56.645 26.615C56.401 26.4517 56.1248 26.2954 55.8559 26.1363C54.7774 25.5071 53.6827 24.902 52.5733 24.3182C50.3574 23.1506 48.0887 22.0753 45.7818 21.0838C44.6268 20.5895 43.4616 20.1207 42.2875 19.6676L40.9607 19.1733C40.8182 19.1221 40.6771 19.0753 40.5331 19.0369C39.9556 18.8835 39.3517 18.8309 38.7566 18.8835C38.1571 18.9361 37.5826 19.098 37.033 19.3523C36.4614 19.6094 35.8869 19.8707 35.3182 20.1363C34.178 20.6662 33.0436 21.2116 31.9195 21.7713C29.6714 22.8934 27.4511 24.0767 25.3279 25.3934C24.7959 25.7216 24.2758 26.0625 23.76 26.4133C23.5102 26.5923 23.2413 26.7713 23.0047 26.9488C22.7726 27.1278 22.5536 27.3238 22.3597 27.5412C21.9688 27.973 21.6588 28.4744 21.4531 29.0142C21.3502 29.2841 21.2694 29.5611 21.2209 29.8437C21.168 30.1292 21.1518 30.4005 21.1372 30.7216C20.8962 35.6221 20.7492 40.5341 20.7213 45.4432L20.7287 47.2855L20.7316 48.2059C20.7345 48.3565 20.7287 48.5199 20.7389 48.6591L20.7492 48.8707L20.7742 49.0838C20.8418 49.652 21.0358 50.2003 21.3091 50.7045C21.5941 51.2031 21.9615 51.6605 22.4111 52.0298C22.6315 52.2201 22.8769 52.3778 23.1282 52.5255C23.3765 52.6633 23.6718 52.8025 23.9525 52.9403L25.6555 53.7599C26.7928 54.3011 27.936 54.8295 29.0851 55.3466C31.3832 56.3821 33.7019 57.3707 36.0588 58.2557C36.648 58.4772 37.2387 58.6875 37.8324 58.8949L38.7257 59.1903C39.0123 59.2841 39.2915 59.3508 39.5824 59.3934C40.1613 59.4772 40.7564 59.4559 41.3295 59.3324C41.616 59.2713 41.8952 59.1846 42.1656 59.0753L42.3669 58.9872L42.5814 58.8878L43.009 58.6903C45.291 57.6264 47.5553 56.527 49.7888 55.3778C50.9041 54.8011 52.012 54.2116 53.1037 53.5994C53.6489 53.2926 54.1896 52.9787 54.7245 52.6605C54.986 52.4971 55.2608 52.3352 55.515 52.1733C55.7604 52.0184 55.9867 51.8366 56.1983 51.642C57.0432 50.8565 57.5751 49.7699 57.6588 48.6378L57.941 44.9773C58.0174 43.7571 58.0982 42.5355 58.1746 41.3167C58.2172 40.7059 58.2481 40.0951 58.2775 39.4858L58.3686 37.6534C58.3979 37.0611 58.4273 36.5071 58.4523 35.99C58.4743 35.473 58.4964 34.9929 58.5155 34.5483C58.5596 33.6619 58.6095 32.9219 58.661 32.3324C58.7668 31.1491 58.8843 30.5611 58.9798 30.5639C59.0827 30.5653 59.165 31.1619 59.2105 32.3494C59.2443 32.9361 59.2575 33.679 59.2546 34.5682Z" fill="#F6F6E9"/>
<path d="M88.7938 51.9261C88.7938 53.3679 88.7835 54.6335 88.7703 55.6293C88.7527 57.2074 87.9739 58.6832 86.6632 59.6264C82.8516 62.3807 76.9594 65.679 74.0338 67.2713C72.8656 67.9062 71.4903 68.0895 70.1884 67.767C64.9824 66.4716 58.1277 63.7841 54.3072 62.2102C52.5205 61.4759 51.2979 59.8438 51.1451 57.9702C51.0658 56.9759 50.9923 55.9844 50.9247 54.9986C50.8072 53.2457 50.7116 51.5199 50.6338 49.8778C50.5588 48.2955 50.5 46.794 50.456 45.4176C50.4016 43.831 50.3678 42.4119 50.3443 41.233C50.3355 40.8068 50.3281 40.4119 50.3237 40.0526C50.3237 39.9744 50.3208 39.8963 50.3193 39.8224C50.2987 38.3224 50.9614 36.8892 52.1414 35.9119C56.0308 32.6861 62.4873 29.1193 65.6891 27.4318C66.9146 26.7869 68.359 26.6349 69.6962 27.0256C76.8962 29.1349 82.5592 31.7557 85.639 33.3295C87.0996 34.0767 88.1017 35.4389 88.3574 36.9972C88.3853 37.1563 88.4044 37.3196 88.4147 37.4858C88.4162 37.5213 88.4206 37.5568 88.4206 37.5923C88.5382 39.402 88.6175 41.294 88.6704 43.1648C88.7159 44.6136 88.7453 46.0568 88.7644 47.4361C88.7879 49.0398 88.7982 50.5625 88.7938 51.9261Z" fill="#F9AABB"/>
<path d="M35.5034 49.885C35.5005 49.9219 35.5005 49.956 35.4961 49.9929C35.4799 50.3622 35.4608 50.7358 35.4402 51.1122C35.3932 51.9844 35.3374 52.8708 35.2742 53.7585C35.2301 54.3594 35.1846 54.9602 35.1361 55.5583C35.092 56.0994 35.0479 56.6392 35.0024 57.1747C34.9642 57.6051 34.926 58.0284 34.8878 58.4503C34.8466 58.9105 34.804 59.3665 34.7599 59.8154C34.6938 60.5213 34.6247 61.2131 34.5557 61.8793C34.469 62.7216 34.3808 63.527 34.2971 64.2813C34.1942 65.2188 34.0943 66.0781 34.0061 66.8395C33.9576 67.2443 33.9121 67.6193 33.8695 67.9631C33.7122 69.2358 33.0672 70.3906 32.0753 71.2117H32.0724C31.8446 71.402 31.5993 71.5725 31.3348 71.723C30.0579 72.4546 28.5738 73.2188 27.0427 73.9617C25.9304 74.5014 24.793 75.0298 23.6925 75.5298C23.5955 75.5739 23.5 75.6193 23.403 75.6619C22.946 75.8665 22.4185 75.8594 21.9689 75.6392L21.6882 75.5029L1.98076 65.8835L0.693576 65.2543C0.29831 65.0625 0.0617378 64.6591 0.0940646 64.2301L1.33276 47.3722C1.38713 46.6094 1.56786 45.8693 1.84999 45.1776C2.11007 44.5355 2.46272 43.9333 2.89913 43.3878C2.98729 43.2742 3.08133 43.1619 3.17685 43.054C3.33701 42.8779 3.50599 42.7074 3.68232 42.544C4.20689 42.0625 4.80934 41.6492 5.47056 41.3253C5.81734 41.1548 6.16558 40.9858 6.51089 40.821C7.43955 40.3779 8.36379 39.956 9.24984 39.5639C9.58486 39.4148 9.91547 39.2699 10.2387 39.1279C10.4268 39.0469 10.6134 38.9673 10.7971 38.8892C12.0299 38.3594 13.1349 37.9077 14.0092 37.5568C15.2964 37.0412 16.7511 37.0369 18.0383 37.5639C18.0985 37.5881 18.1602 37.6151 18.2205 37.6392C19.7236 38.26 21.1519 38.8949 22.4949 39.5298C22.6566 39.6065 22.8182 39.6818 22.9783 39.7571C23.8703 40.1847 24.724 40.6122 25.5351 41.0327C25.7144 41.1236 25.8877 41.2145 26.0597 41.3068C28.3534 42.5071 30.2944 43.6435 31.8123 44.5881C32.1562 44.8026 32.4809 45.0071 32.7807 45.1989C32.9261 45.2912 33.0642 45.3807 33.198 45.4688C33.5065 45.6662 33.7872 45.8963 34.037 46.1492C34.1149 46.2273 34.1883 46.3054 34.2589 46.3864C34.2736 46.4006 34.2868 46.4176 34.3 46.4318C34.5718 46.7443 34.7981 47.0867 34.9833 47.4503C35.2845 48.0526 35.4623 48.7117 35.499 49.3949C35.5093 49.5554 35.5108 49.7188 35.5034 49.885Z" fill="#F6F6E9"/>
<path d="M22.1393 57.7543L22.1144 58.7102L22.0806 60.0582L22.0717 60.3949L21.9836 63.8835L21.9439 65.4247L21.9131 66.6889L21.8998 67.1974L21.8161 70.4758L21.6882 75.5028L1.98077 65.8835L2.23351 61.8963L2.43482 58.7216L2.45392 58.4418L2.48918 57.8821L2.64641 55.3878L2.86241 52.0085L2.86682 51.9318L2.92118 51.0682L3.10192 48.2429C3.14453 47.5852 3.86159 47.1761 4.47727 47.4602L20.185 54.6818C21.4076 55.2443 22.1731 56.446 22.1393 57.7543ZM68.1489 35.7855C72.6746 35.2344 77.1783 34.5611 81.6952 33.9645C82.2315 33.8935 82.183 33.1108 81.632 33.1449C77.0255 33.4418 72.4513 33.6605 67.8609 34.1932C65.6098 34.456 63.3601 34.7429 61.1164 35.0724C60.0922 35.2216 59.0666 35.3821 58.0439 35.5469C56.936 35.723 56.0455 35.8338 55.1962 36.5611C55.0434 36.6903 55.108 36.9787 55.2858 37.054C56.1954 37.4347 56.936 37.3452 57.9072 37.1974C59.0636 37.0213 60.2215 36.8409 61.3809 36.6747C63.6349 36.3551 65.8904 36.0611 68.1489 35.7855ZM65.429 31.2329C66.5193 31.0881 67.6081 30.9347 68.6984 30.8068C69.6962 30.6889 70.591 30.4318 71.5623 30.2514C72.6349 30.0525 73.7296 29.9588 74.8155 29.865C75.1255 29.8395 75.1035 29.4006 74.7935 29.4006C72.6746 29.3935 70.5411 29.1719 68.4428 29.3707C67.4127 29.4687 66.3856 29.5753 65.3629 29.7216C64.5357 29.8395 63.5423 29.8196 63.1133 30.6122C63.0398 30.7457 63.0736 30.9105 63.1838 31.0128C63.8024 31.5909 64.6532 31.3366 65.429 31.2329ZM84.7912 50.1392C84.6472 47.723 84.4077 45.277 83.9375 42.8991C83.4996 40.6861 81.6305 38.9702 79.2707 38.8253C77.6588 38.7258 75.9675 38.9616 74.3585 39.081C72.6438 39.2074 70.9304 39.3864 69.2201 39.5767C67.3304 39.7869 65.4246 40.0199 63.56 40.3778C62.6519 40.5525 61.7409 40.8679 60.8254 40.9773C59.8983 41.0895 59.0475 41.1932 58.1306 41.402C57.8455 41.4659 57.9528 41.9105 58.2364 41.8864C59.3899 41.7827 60.561 41.5014 61.7056 41.4403C62.6666 41.3878 63.6217 41.365 64.5797 41.2756C66.5619 41.0909 68.5471 40.9332 70.5322 40.7827C72.4513 40.6392 74.3717 40.5213 76.2922 40.4176C77.9189 40.331 79.7218 39.9858 81.1001 41.044C82.2418 41.9233 82.4196 43.2329 82.615 44.5412C82.8222 45.9204 82.9838 47.304 83.1014 48.6932C83.2395 50.331 83.3159 51.9744 83.3203 53.6179C83.3218 54.5043 83.2763 55.3878 83.2616 56.2741C83.2527 56.7912 83.2719 57.3082 83.2763 57.8253C83.2792 58.3409 83.407 58.8849 83.4012 59.3892C83.3953 59.8295 84.1065 59.8821 84.1946 59.456C84.3533 58.6861 84.6237 57.9702 84.7324 57.1733C84.8397 56.4034 84.8705 55.6378 84.8882 54.865C84.922 53.2869 84.8852 51.7102 84.7912 50.1392ZM79.6278 53.6804C79.5499 52.5057 79.4867 51.3239 79.3677 50.1534C79.1282 47.7926 77.3943 45.7557 74.9125 45.365C72.9935 45.0625 70.7953 45.5653 68.885 45.7983C66.4855 46.0923 64.1051 46.4758 61.7379 46.946C61.3662 47.0199 61.3853 47.5696 61.785 47.5327C65.5451 47.1818 69.3082 46.8452 73.0772 46.6406C75.5943 46.5043 77.7043 47.7329 77.91 50.3281C78.1437 53.2926 78.2877 56.2656 78.4919 59.2329C78.5463 60.0327 78.5419 60.8736 78.7652 61.6506C78.8431 61.919 79.1414 62.4702 79.1473 62.5852C79.1722 62.9773 79.8041 62.9531 79.7791 62.5611C79.785 62.6648 79.7909 62.3892 79.8056 62.3409C79.8056 62.3423 79.9422 62.0043 79.9863 61.821C80.1582 61.1051 80.0612 60.3452 80.0127 59.6207C79.8849 57.6406 79.7571 55.6591 79.6278 53.6804ZM67.3642 51.0866C67.1174 51.1435 67.1424 51.4801 67.4068 51.4716C70.8349 51.3821 70.5602 55.6435 70.5396 57.8679C70.5264 59.2003 70.5278 60.5327 70.4911 61.8636C70.4544 63.1136 70.2722 64.3537 70.9686 65.4616C71.0083 65.5241 71.1112 65.527 71.1597 65.4716C72.2073 64.2401 72.0149 62.4474 72.0457 60.9347C72.0824 59.1889 72.0751 57.4261 71.862 55.6903C71.5961 53.4972 70.1766 50.4446 67.3642 51.0866Z" fill="#F6F6E9"/>
<path d="M22.082 60.0582L21.9865 63.8835C21.0284 63.5085 20.16 62.9048 19.2505 62.4091C18.4761 61.9901 17.6635 61.6449 16.8495 61.304C14.8908 60.4844 12.9291 59.6776 10.966 58.8722C8.18448 57.7344 5.39705 56.6009 2.64929 55.3878L2.8697 51.9318C4.16864 52.5753 5.6057 52.9617 6.94431 53.5355C7.8524 53.9261 8.71934 54.402 9.60097 54.8423C13.6271 56.8494 18.0426 58.1151 22.082 60.0582ZM6.4506 60.0099C5.13843 59.446 3.7337 59.0625 2.4568 58.4418L2.23639 61.8963C4.9577 63.0966 7.71868 64.2188 10.4709 65.3466C12.4354 66.1492 14.3985 66.956 16.3543 67.7784C17.1683 68.1179 17.9838 68.4617 18.7553 68.8807C19.7677 69.4304 20.7287 70.1179 21.819 70.4759L21.9145 66.6889C17.7869 64.6563 13.2436 63.3764 9.10873 61.3168C8.22415 60.8764 7.36015 60.3992 6.4506 60.0099Z" fill="#F9AAC0"/>
<mask id="mask0_80_20" style="mask-type:luminance" maskUnits="userSpaceOnUse" x="1" y="26" width="89" height="50">
<path d="M1.8808 26.5454H89.2669V75.6363H1.8808V26.5454Z" fill="white"/>
</mask>
<g mask="url(#mask0_80_20)">
<path d="M89.1802 51.9503L89.1538 55.6349C89.1391 56.9531 88.6057 58.2557 87.6829 59.2244C87.4522 59.4659 87.2024 59.6918 86.9306 59.8878L86.1547 60.4375L85.3701 60.9716L84.5795 61.4929C83.5216 62.1804 82.4489 62.8438 81.3675 63.4929C79.2045 64.7898 77.0107 66.0312 74.7949 67.2386C74.5113 67.3878 74.2541 67.5384 73.9441 67.6903C73.6414 67.8366 73.3255 67.9545 73.0007 68.044C72.3498 68.2216 71.6665 68.2855 70.9936 68.2259C70.66 68.1974 70.3191 68.1349 70.0047 68.0511L69.0789 67.8082C68.4677 67.6364 67.8549 67.4616 67.2466 67.2741C64.8177 66.5284 62.427 65.6804 60.0584 64.7841C58.874 64.3366 57.6956 63.875 56.5215 63.4034L54.7641 62.6875C54.4703 62.5653 54.1837 62.4517 53.8766 62.3054C53.5842 62.1534 53.2948 61.9901 53.0317 61.7884C52.4983 61.402 52.0517 60.9091 51.6946 60.3651C51.3508 59.8139 51.0951 59.2074 50.9775 58.5724C50.9085 58.2557 50.8923 57.9318 50.8703 57.6307L50.8056 56.7102L50.6792 54.8707C50.3912 49.9631 50.2223 45.0497 50.1517 40.1364C50.1459 39.8366 50.1459 39.5114 50.1811 39.1974C50.2149 38.8821 50.284 38.571 50.378 38.2685C50.5632 37.6619 50.8688 37.0895 51.267 36.5895C51.4639 36.3381 51.6902 36.1065 51.9312 35.8949C52.1751 35.6861 52.4219 35.5 52.6673 35.3011C53.164 34.9162 53.6694 34.5398 54.1837 34.1776C56.2379 32.7259 58.3847 31.4063 60.5638 30.1491C61.6541 29.5213 62.7518 28.9077 63.8611 28.3097C64.4151 28.0099 64.9705 27.7159 65.5274 27.4219C66.0858 27.1193 66.7015 26.9006 67.3377 26.8068C67.9725 26.7102 68.6249 26.7244 69.2538 26.8523C69.5697 26.9119 69.8724 27.0156 70.1736 27.1051L71.0817 27.3835C72.2881 27.767 73.4842 28.1662 74.6729 28.5923C77.0489 29.446 79.3926 30.3864 81.6863 31.4233C82.8339 31.9403 83.9712 32.4801 85.0938 33.0455C85.3715 33.1903 85.6551 33.3253 85.9284 33.4844C86.1988 33.6435 86.4501 33.831 86.6867 34.0355C87.1539 34.4474 87.5507 34.9375 87.8357 35.483C88.1634 36.1065 88.2677 36.6278 88.3059 36.9702C88.328 37.3168 88.3177 37.4901 88.2927 37.4915C88.2662 37.4929 88.2222 37.3253 88.156 36.9972C88.0767 36.6705 87.9503 36.179 87.6344 35.5866C87.3596 35.0682 86.9805 34.6009 86.5324 34.2102C86.3046 34.017 86.0636 33.8409 85.8065 33.6889C85.5523 33.5412 85.2657 33.4048 84.9866 33.2628C83.8654 32.7045 82.731 32.1733 81.5835 31.6648C79.2927 30.6449 76.9519 29.7202 74.5803 28.8821C73.3945 28.4645 72.197 28.0724 70.9965 27.6989L70.0899 27.4276L69.6373 27.2912C69.4904 27.2514 69.3478 27.2131 69.2009 27.1847C68.6146 27.0668 68.0063 27.054 67.4127 27.1477C66.8176 27.2415 66.2533 27.4403 65.7229 27.7301C65.1689 28.0256 64.6164 28.3224 64.0639 28.625C62.9633 29.2287 61.8701 29.8452 60.7872 30.4787C58.6213 31.7457 56.4921 33.0724 54.4615 34.5241C53.9545 34.8878 53.4579 35.2599 52.97 35.6435C52.732 35.8381 52.4763 36.0327 52.2544 36.2273C52.034 36.4205 51.8283 36.6321 51.6505 36.8622C51.2905 37.321 51.0157 37.8423 50.8482 38.3963C50.7645 38.6719 50.7013 38.956 50.6734 39.2415C50.6425 39.5313 50.6425 39.8054 50.6528 40.1236C50.7527 45.0298 50.9525 49.9403 51.2685 54.8409L51.4051 56.6761L51.4742 57.5952C51.4874 57.7443 51.4933 57.9091 51.5124 58.044L51.5374 58.2571L51.577 58.4688C51.6843 59.0327 51.9194 59.5682 52.2265 60.054C52.5483 60.5355 52.9465 60.9688 53.4241 61.3082C53.6577 61.4844 53.9148 61.6264 54.1764 61.7585C54.435 61.8793 54.7392 61.9972 55.0286 62.1179L56.7846 62.8224C57.9586 63.2869 59.1371 63.7415 60.3199 64.1832C62.6856 65.0668 65.069 65.8991 67.4817 66.6293C68.0856 66.8125 68.691 66.983 69.2979 67.1506L70.2104 67.3878C70.5028 67.4631 70.7864 67.5128 71.0817 67.5341C71.6665 67.581 72.2616 67.5199 72.8259 67.3594C73.1095 67.2784 73.3843 67.1761 73.6458 67.0455L73.8412 66.946L74.0484 66.8324L74.4613 66.6051C76.6654 65.3949 78.8475 64.152 80.9942 62.8551C82.0684 62.206 83.1307 61.5469 84.1769 60.8636C84.6986 60.5213 85.2173 60.1747 85.7286 59.8196C85.9799 59.6406 86.2429 59.4602 86.4839 59.2812C86.7175 59.1122 86.932 58.9148 87.1289 58.706C87.9195 57.8636 88.3764 56.7429 88.3809 55.6023L88.4044 51.9318C88.397 50.7088 88.3897 49.4858 88.3823 48.2628C88.3823 47.652 88.372 47.0398 88.3559 46.429L88.3162 44.5966C88.3059 44.0043 88.2927 43.4503 88.2839 42.9304C88.2692 42.4134 88.2574 41.9304 88.2442 41.4886C88.2251 40.6009 88.2236 39.8608 88.2324 39.2685C88.2515 38.081 88.3221 37.4872 88.4146 37.483C88.5131 37.4787 88.6321 38.0668 88.7585 39.25C88.8217 39.8395 88.8834 40.581 88.9451 41.4688C88.9715 41.9134 89.0009 42.3935 89.0347 42.9134C89.0627 43.4318 89.07 43.9872 89.0847 44.5795L89.1258 46.4219C89.1391 47.0355 89.1523 47.6477 89.1523 48.2628L89.1802 51.9503ZM20.6229 74.8352C14.7277 71.5256 8.51068 68.6861 2.31426 65.9702C1.86904 65.7827 1.87492 65.7699 2.30545 65.9844C5.34562 67.4673 8.33435 69.0653 11.3495 70.6207C14.3633 72.179 17.4093 73.6733 20.5479 74.9815C20.9256 75.1335 21.2077 75.2472 21.4046 75.3267C21.5956 75.4034 21.6882 75.446 21.6882 75.446C21.6882 75.446 21.5956 75.3992 21.4193 75.2983C21.2371 75.1932 20.9726 75.0412 20.6229 74.8352Z" fill="#F6F6E9"/>
</g>
<path d="M28.7016 29.1847C27.7333 27.1534 27.9052 24.6534 29.141 22.7628C30.3782 20.8722 32.6411 19.6534 34.9539 19.6321L43.2956 18.6804C45.4453 19.1307 47.5671 19.8906 49.2834 21.2202C51.0011 22.5483 52.2795 24.4986 52.4323 26.6207C52.5836 28.7415 51.4581 30.9858 49.4744 31.9034C47.9506 32.6094 46.155 32.4957 44.5534 33.0199C43.0061 33.527 41.6749 34.6179 40.06 34.8693C38.5172 35.1108 36.9493 34.5327 35.6386 33.7088C34.4925 32.9886 33.4507 32.0639 32.1547 31.6477C31.6184 31.4758 31.0468 31.3949 30.5384 31.1619C29.6905 30.7756 29.094 30.0057 28.7016 29.1847ZM67.5361 53.9375C67.5347 53.7727 67.5214 53.6094 67.5023 53.4489C67.3231 51.8793 66.3871 50.473 64.9647 49.6619C61.9642 47.9531 56.4305 45.081 49.3407 42.6506C48.0241 42.2003 46.5724 42.2855 45.3175 42.8764C42.0393 44.419 35.4182 47.6932 31.3789 50.7415C30.1549 51.6648 29.4231 53.0653 29.3717 54.5639C29.3702 54.6392 29.3687 54.7159 29.3658 54.7954C29.3217 56.1477 29.2718 58 29.2409 60.1605C29.2189 61.5369 29.2042 63.0398 29.2042 64.6221C29.2042 66.267 29.2174 67.9943 29.2512 69.7514C29.2703 70.7386 29.2953 71.7329 29.3276 72.7287C29.3908 74.6065 30.531 76.2926 32.2825 77.1079C36.0221 78.8494 42.7417 81.8437 47.8816 83.3707C49.1644 83.7514 50.5485 83.6292 51.7446 83.0483C54.7436 81.5895 60.7872 78.5596 64.7296 75.9773C66.0814 75.0937 66.9308 73.6534 67.0248 72.0781C67.0836 71.0838 67.1556 69.8196 67.2246 68.3778C67.2908 67.017 67.3569 65.4957 67.4112 63.8935C67.4568 62.5142 67.4965 61.0753 67.5214 59.6222C67.5582 57.7145 67.5655 55.7827 67.5361 53.9375ZM21.5222 65.2528C21.6603 65.3111 21.8014 65.3679 21.9439 65.4247L21.913 66.6889L21.8998 67.1974C21.5163 67.027 21.1416 66.8224 20.7684 66.6619C19.8412 66.2628 18.9081 65.8778 17.9736 65.4986C16.0987 64.7415 14.209 64.0199 12.3267 63.2812C10.4018 62.527 8.44462 61.8068 6.56527 60.9489C5.12086 60.2883 3.70584 59.6364 2.43481 58.7216L2.45392 58.4417L2.48918 57.8821C4.22306 58.2798 5.85849 58.9702 7.50274 59.6321C9.36005 60.3807 11.2144 61.1349 13.0791 61.8622C15.0275 62.6179 16.9774 63.3722 18.9096 64.1591C19.7839 64.517 20.6567 64.8778 21.5222 65.2528ZM21.5766 58.5057C20.6876 58.1292 19.7986 57.7542 18.9126 57.3821C17.0156 56.5824 15.1201 55.7827 13.2201 54.99C11.329 54.1989 9.43793 53.4105 7.54682 52.6207C6.12886 52.0298 4.50812 51.1747 2.92118 51.0682L2.86682 51.9318L2.86241 52.0085C4.08935 52.9858 5.82176 53.5284 7.22356 54.1207C9.12201 54.9233 11.0161 55.7244 12.9145 56.527C14.813 57.331 16.7158 58.1236 18.6172 58.9233C19.5018 59.2926 20.3849 59.6633 21.2695 60.0341C21.5442 60.1506 21.8073 60.2812 22.0717 60.3949L22.0806 60.0582L22.1144 58.7102C21.9277 58.6406 21.747 58.5767 21.5766 58.5057Z" fill="#F9AABB"/>
<path d="M67.5215 59.6221C63.4674 61.74 59.4104 63.8579 55.3549 65.9744C53.1244 67.1392 50.7131 68.3395 48.1931 68.0653C45.6319 67.7855 43.5278 66.0412 41.1503 65.0724C39.9542 64.5838 38.6817 64.2912 37.4563 63.8679C36.2778 63.4574 35.1464 62.929 34.0179 62.3991C32.4265 61.6534 30.8337 60.9062 29.2409 60.1605C29.2718 58 29.3217 56.1477 29.3658 54.7954C34.71 57.4275 40.2261 59.7315 45.8729 61.6875C46.8075 62.0114 47.7611 62.3281 48.7529 62.375C51.4081 62.4971 53.6798 60.7131 56.0088 59.4773C58.589 58.1037 61.494 57.331 63.9597 55.7756C65.1513 55.0241 66.2593 54.0824 67.5024 53.4489C67.5215 53.6094 67.5347 53.7727 67.5362 53.9375C67.5655 55.7827 67.5582 57.7145 67.5215 59.6221ZM52.4514 72.2983C49.7154 73.0525 46.8324 72.2784 44.1361 71.3679C38.9918 69.6335 33.987 67.4048 29.2042 64.7088C29.2042 66.5554 29.2174 68.4915 29.2512 70.4631C33.2935 71.8267 37.2873 73.3636 41.2179 75.0668C44.8282 76.6349 48.728 78.3764 52.4837 77.2812C53.9605 76.8523 55.3035 76.0043 56.6245 75.1662C57.8382 74.3963 59.0519 73.625 60.2656 72.8523C62.5241 71.419 64.8046 69.9716 67.2246 68.9219C67.2908 67.3949 67.3569 65.6889 67.4113 63.892C63.6996 66.0824 59.9938 68.2727 56.2836 70.4631C55.0537 71.1917 53.8076 71.9233 52.4514 72.2983Z" fill="#F6F6E9"/>
<mask id="mask1_80_20" style="mask-type:luminance" maskUnits="userSpaceOnUse" x="28" y="42" width="41" height="42">
<path d="M28.9646 42.1818H68.0856V83.9219H28.9646V42.1818Z" fill="white"/>
</mask>
<g mask="url(#mask1_80_20)">
<path d="M67.7256 63.6307C67.7153 64.5213 67.6771 65.5568 67.6287 66.7429L67.5493 68.5824L67.4509 70.4219C67.4156 71.0398 67.3921 71.6392 67.3436 72.2727C67.2848 72.9233 67.0967 73.5596 66.8029 74.1477C66.5046 74.7344 66.0975 75.2685 65.6053 75.7116C65.3643 75.9375 65.0837 76.1364 64.8148 76.3097C64.5488 76.4801 64.2843 76.6534 64.014 76.8196C62.9413 77.4872 61.851 78.1207 60.7475 78.7386C58.5449 79.9673 56.3026 81.1292 54.0427 82.2571L52.3441 83.0937L51.9194 83.3011C51.7725 83.3707 51.6167 83.4417 51.4624 83.5C51.1494 83.6222 50.8262 83.7145 50.497 83.7784C49.8387 83.9077 49.1555 83.9204 48.4928 83.8111C48.1666 83.7599 47.8272 83.6662 47.5333 83.5696C47.2291 83.473 46.9235 83.3821 46.6237 83.2812C44.2051 82.4915 41.8467 81.5625 39.5089 80.5923C37.1741 79.6136 34.8657 78.5852 32.5764 77.517L32.1458 77.3139C31.9989 77.2372 31.849 77.1704 31.7094 77.081C31.4229 76.919 31.1613 76.7173 30.9086 76.5085C30.4178 76.0767 29.9976 75.5639 29.6978 74.99C29.3892 74.4204 29.1997 73.794 29.1248 73.1562C29.1086 72.9986 29.0998 72.8338 29.091 72.6775L29.0807 72.2173L29.0601 71.294C29.0469 70.6804 29.0263 70.0653 29.0248 69.4517L29.0131 67.6079C29.0116 66.3778 28.9881 65.1491 29.0057 63.9204L29.0498 60.2358L29.1483 56.5525L29.1982 54.7102C29.2041 54.0852 29.3305 53.4474 29.5656 52.8594C29.8036 52.2685 30.1475 51.7216 30.5883 51.2528C30.8087 51.0199 31.0497 50.804 31.3068 50.6122L32.0724 50.0582C34.1427 48.6179 36.3306 47.3608 38.5465 46.1619C40.7697 44.9716 43.0267 43.8494 45.3145 42.7827C46.4797 42.2471 47.8492 42.1406 49.0849 42.4943C50.2913 42.8963 51.4727 43.3352 52.6512 43.7926C55.0051 44.706 57.3179 45.7202 59.5867 46.8125C60.721 47.3622 61.8422 47.9318 62.9516 48.5241C63.5041 48.8224 64.0566 49.125 64.6032 49.4346C64.8765 49.5909 65.1542 49.74 65.4084 49.9261C65.6626 50.1079 65.9051 50.3096 66.1211 50.5341C66.9998 51.4247 67.5111 52.6349 67.5405 53.8622C67.5449 55.0881 67.5302 56.3111 67.5258 57.5355C67.5111 60.321 67.3289 60.321 67.3289 57.5341C67.3274 56.3153 67.3274 55.0937 67.3245 53.8721C67.2892 52.6989 66.7984 51.5426 65.955 50.6946C65.7478 50.4801 65.5171 50.2898 65.2747 50.115C65.0337 49.9375 64.7648 49.7983 64.49 49.642C63.9449 49.3352 63.3939 49.0383 62.8399 48.7443C61.7335 48.1577 60.6108 47.5937 59.4794 47.0525C57.2136 45.973 54.9023 44.9758 52.5498 44.0767C51.9635 43.8494 51.3713 43.6321 50.7806 43.4176C50.4853 43.3082 50.187 43.2088 49.8902 43.1037C49.5934 43.0043 49.2877 42.8864 49.0071 42.8054C47.8492 42.4773 46.5679 42.5781 45.4805 43.0824C43.2103 44.1562 40.9578 45.2898 38.7507 46.4886C36.5466 47.6946 34.3749 48.9588 32.3354 50.3949L31.5816 50.946C31.3435 51.1264 31.1246 51.3239 30.9233 51.5398C30.5236 51.973 30.2092 52.4773 29.9932 53.0185C29.7816 53.5639 29.6699 54.1321 29.6655 54.7287L29.6258 56.5696L29.5465 60.2528L29.5215 63.9361C29.5112 65.1633 29.5406 66.392 29.5465 67.6193L29.5656 69.4616C29.5714 70.0753 29.5964 70.6889 29.6111 71.3025L29.6361 72.223L29.6493 72.6832C29.6596 72.8324 29.664 72.9744 29.6831 73.1179C29.7537 73.6903 29.93 74.2514 30.2106 74.7614C30.4839 75.2741 30.8675 75.7287 31.3097 76.1136C31.5375 76.2983 31.7726 76.4787 32.0327 76.6207C32.1561 76.7003 32.2942 76.7585 32.425 76.8281L32.8541 77.0256C35.1448 78.0824 37.4518 79.1008 39.7822 80.0667C42.1127 81.0256 44.4652 81.9403 46.8603 82.7145C47.1571 82.8139 47.4598 82.902 47.7596 82.9957L47.9844 83.0639L48.1974 83.1222C48.3429 83.1577 48.4869 83.1875 48.6338 83.2102C49.2187 83.3011 49.8226 83.2855 50.403 83.1648C50.6939 83.1065 50.9775 83.0213 51.2523 82.9119C51.3934 82.8565 51.5212 82.7983 51.6608 82.7287L52.084 82.5227L53.7767 81.6847C56.0234 80.5568 58.2554 79.3949 60.4419 78.1719C61.5336 77.5597 62.6151 76.929 63.6745 76.267L64.4636 75.7642C64.7163 75.598 64.9514 75.4318 65.166 75.2287C65.5965 74.8352 65.9535 74.3679 66.2122 73.8523C66.4678 73.3366 66.6324 72.7756 66.6838 72.206C66.725 71.615 66.7529 70.9886 66.7882 70.3835L66.8866 68.5525L66.966 66.7216C67.0144 65.5383 67.0747 64.5028 67.1217 63.6165C67.1629 62.7301 67.2099 61.99 67.2554 61.3991C67.3495 60.2173 67.4479 59.6264 67.5302 59.6293C67.614 59.6307 67.6815 60.2244 67.7124 61.4119C67.7227 62 67.73 62.7415 67.7256 63.6307Z" fill="#F6F6E9"/>
</g>
<path d="M59.572 44.8636C59.572 44.8764 59.572 44.8878 59.572 44.902C59.572 44.9048 59.572 44.9048 59.572 44.9063C59.572 44.9119 59.572 44.9205 59.572 44.9261C59.572 44.929 59.572 44.9333 59.572 44.9347C59.5647 45.7798 59.0871 46.5128 58.3759 46.9034C58.7874 47.5838 58.8256 48.4475 58.398 49.1818C57.9763 49.9091 57.2019 50.3253 56.3967 50.3423C56.4305 51.1122 56.0572 51.8807 55.3446 52.3395C54.6378 52.794 53.7709 52.831 53.0538 52.51C52.7364 53.2074 52.0678 53.7386 51.2288 53.8565C51.1083 53.875 50.9878 53.8807 50.8703 53.8807C50.1723 53.8764 49.5287 53.5725 49.0953 53.0796C48.5075 53.5852 47.6729 53.7955 46.8647 53.5682C46.0507 53.3395 45.4615 52.723 45.2499 51.9872C44.4887 52.206 43.6335 52.0469 42.9973 51.5C42.9973 51.5 42.9973 51.5 42.9973 51.4972C42.3566 50.9418 42.1054 50.125 42.2582 49.3622C41.4618 49.2259 40.7594 48.6975 40.4567 47.9105C40.1526 47.1193 40.3318 46.2671 40.849 45.6591C40.2201 45.1705 39.866 44.385 39.988 43.5554C40.1026 42.7642 40.6272 42.1236 41.3222 41.8097C40.9857 41.1548 40.9769 40.3537 41.3751 39.6676C41.7733 38.9844 42.4801 38.5739 43.2324 38.5114C43.1472 37.777 43.4322 37.0171 44.0582 36.5057C44.7106 35.9744 45.5746 35.8452 46.3269 36.0895C46.5767 35.3338 47.2262 34.7244 48.0887 34.5483C48.9748 34.3679 49.852 34.6932 50.3927 35.3239C51.0363 34.8026 51.9488 34.6279 52.7849 34.9503C53.5843 35.2585 54.1118 35.9404 54.2396 36.7046C55.0066 36.571 55.8251 36.804 56.3937 37.3963C56.9462 37.9702 57.1328 38.7486 56.9638 39.4602C57.7015 39.6051 58.3554 40.0852 58.6727 40.8068C58.9872 41.5256 58.8946 42.3139 58.4891 42.9276C59.1459 43.3367 59.5779 44.0526 59.572 44.8636Z" fill="#F9AAC0"/>
<path d="M39.8924 35.2031C38.6993 35.3352 37.5238 35.027 36.4937 34.5426C35.9765 34.2997 35.4843 34.0057 35.0229 33.6932C34.5615 33.3821 34.1192 33.0596 33.6681 32.7684C33.2199 32.4758 32.7556 32.2187 32.2737 32.0341C31.8005 31.8494 31.2554 31.7727 30.6867 31.5738C30.4031 31.4744 30.121 31.3295 29.8727 31.1577C29.6258 30.9829 29.4039 30.7798 29.207 30.5611C28.8162 30.1193 28.5194 29.6221 28.3004 29.1008C27.8508 28.0611 27.6789 26.9204 27.7685 25.8025C27.8611 24.6875 28.2152 23.5866 28.8338 22.6307C29.4524 21.6761 30.3164 20.8849 31.3097 20.3167C32.4147 19.6903 33.3845 19.5213 34.0105 19.49C34.3264 19.4787 34.563 19.4929 34.7158 19.5298C34.8715 19.5611 34.9509 19.5994 34.9538 19.6378C34.9553 19.6775 34.8818 19.7202 34.7334 19.7656C34.5821 19.8054 34.3617 19.8608 34.0766 19.9275C33.5094 20.0753 32.6528 20.3025 31.6506 20.875C30.744 21.3934 29.9579 22.1179 29.3995 22.9801C28.8412 23.8423 28.515 24.8452 28.4312 25.8665C28.3474 26.8863 28.5047 27.9261 28.9117 28.8693C29.307 29.8068 29.9696 30.6747 30.9218 31C31.3994 31.1719 31.9636 31.2571 32.5176 31.4716C33.0627 31.6832 33.5608 31.9687 34.0266 32.277C34.9612 32.8963 35.7987 33.5767 36.7685 34.0298C37.7266 34.4858 38.7919 34.7656 39.8381 34.6534C40.8872 34.5511 41.8555 34.0256 42.8386 33.5327C43.3338 33.2855 43.8407 33.0398 44.3814 32.8565C44.9222 32.6704 45.4849 32.5667 46.036 32.4801C47.1365 32.3096 48.2459 32.2244 49.2334 31.8139C50.2164 31.4105 51.0275 30.6548 51.5535 29.7443C52.0825 28.8338 52.3485 27.777 52.3029 26.7301C52.2559 25.679 51.9165 24.6477 51.3801 23.7258C50.8438 22.804 50.1165 21.9858 49.2671 21.3125C48.4178 20.6378 47.4539 20.1023 46.44 19.6804C45.4276 19.2599 44.3697 18.9503 43.2911 18.7187C40.8637 18.9829 38.4407 19.2443 36.0191 19.5071C34.5968 19.6633 34.585 19.4858 36.0044 19.3167C38.4142 19.0312 40.8299 18.7471 43.2662 18.4588L43.3044 18.4545L43.3411 18.4631C44.4343 18.6889 45.5158 18.9886 46.5532 19.4091C47.592 19.8267 48.5868 20.365 49.4743 21.0554C50.3618 21.7443 51.1289 22.5838 51.7005 23.544C52.2735 24.5014 52.6467 25.5866 52.7099 26.7074C52.7702 27.8309 52.4998 28.9645 51.9414 29.9531C51.3889 30.9403 50.5073 31.7855 49.4214 32.2429C48.3356 32.7003 47.1865 32.7926 46.1138 32.973C45.5746 33.0639 45.0471 33.1676 44.5519 33.3437C44.0523 33.5156 43.5703 33.7528 43.084 34.0028C42.5961 34.2528 42.1024 34.5156 41.5764 34.7386C41.0518 34.9602 40.4861 35.1406 39.8924 35.2031ZM59.5911 43.767C59.4192 43.4119 59.1561 43.1008 58.8402 42.8579C59.1899 42.1988 59.2296 41.392 58.924 40.7074C58.6301 40.0241 58.0056 39.4872 57.2709 39.2727C57.3708 38.5256 57.1122 37.7386 56.5671 37.1988C56.0322 36.6434 55.2226 36.3594 54.4438 36.4261C54.3468 36.0753 54.1749 35.7457 53.9354 35.4631C53.6445 35.1179 53.2551 34.8523 52.8245 34.6988C52.3955 34.5426 51.9194 34.5 51.4668 34.5795C51.0907 34.642 50.7351 34.7898 50.4221 35.0014C50.1473 34.7372 49.8182 34.5298 49.4538 34.4048C49.0159 34.2528 48.5325 34.2202 48.0784 34.3096C47.6229 34.3963 47.1909 34.6037 46.8471 34.9034C46.5576 35.1548 46.3342 35.4687 46.1844 35.8167C45.4129 35.6349 44.5578 35.8167 43.9494 36.3096C43.3279 36.7912 42.9752 37.5667 43.0046 38.3309C42.2479 38.4574 41.5602 38.9219 41.1929 39.5724C40.8108 40.2258 40.777 41.0412 41.0738 41.7244C40.3759 42.1051 39.8807 42.8153 39.7984 43.5838C39.6985 44.3608 40.0247 45.1605 40.6183 45.6775C40.2745 46.142 40.104 46.7202 40.1525 47.2827C40.1995 47.7471 40.3524 47.9446 40.3773 47.9318C40.4214 47.9162 40.3465 47.7031 40.3097 47.2727C40.2686 46.6932 40.4699 46.1023 40.8549 45.6605L40.8622 45.6548L40.8549 45.6491C40.2319 45.1662 39.8998 44.3665 40.0085 43.6079C40.1011 42.848 40.6271 42.1605 41.3442 41.848L41.3883 41.8295L41.3662 41.7869C41.0312 41.1335 41.0562 40.3267 41.4338 39.7017C41.8012 39.071 42.5006 38.6449 43.2412 38.5966L43.3338 38.5909L43.3235 38.5014C43.2397 37.767 43.5703 37.0128 44.1654 36.5639C44.7532 36.1037 45.5834 35.973 46.2858 36.2131L46.4151 36.2585L46.4577 36.1278C46.7001 35.3949 47.3775 34.8224 48.1563 34.6903C48.9292 34.5426 49.7653 34.8452 50.2516 35.4332L50.3648 35.571L50.5073 35.4545C51.0995 34.9787 51.9532 34.8423 52.6585 35.115C53.3741 35.3693 53.909 36.0142 54.0177 36.7372L54.0515 36.9545L54.2778 36.9148C54.9743 36.794 55.7207 37.0312 56.1953 37.5327C56.6846 38.0227 56.8815 38.7514 56.7184 39.4062L56.6567 39.6491L56.9124 39.6974C57.5854 39.8281 58.1717 40.2926 58.4303 40.9034C58.7021 41.5085 58.6345 42.2358 58.2628 42.7869L58.1188 43.0014L58.3436 43.1434C58.6698 43.3508 58.9343 43.6449 59.1018 43.9858C59.2693 44.3309 59.3237 44.7017 59.2913 45.0923C59.2252 45.7486 58.9196 46.1804 58.7036 46.4432C58.4817 46.7116 58.3362 46.8395 58.373 46.9006C58.3803 46.9148 58.4038 46.9219 58.4376 46.9219C58.4494 46.9886 58.4935 47.1065 58.561 47.2827C58.8123 47.9645 58.6992 48.7542 58.2672 49.3352C57.8484 49.9275 57.1225 50.2883 56.3937 50.2912H56.3423L56.3452 50.3395C56.3746 51.1037 55.9632 51.8594 55.3049 52.2628C54.6554 52.6804 53.7885 52.7287 53.0993 52.402L52.9906 52.3523L52.9406 52.4616C52.6291 53.1307 51.9532 53.6179 51.2097 53.7045C50.4706 53.804 49.6992 53.5071 49.2348 52.956L49.1158 52.8139L48.9689 52.9403C48.9307 52.9716 48.891 52.9986 48.8513 53.027C48.844 53.0213 48.8351 53.0142 48.8263 53.0085C48.8998 52.9332 48.9689 52.8565 49.032 52.7798C49.8329 51.7699 49.7094 50.3807 48.7587 49.6747C47.9726 49.0923 46.8662 49.1633 46.0551 49.7756C46.0404 49.7315 46.0271 49.6861 46.0124 49.6463C45.5599 48.4517 44.283 47.804 43.1589 48.2017C42.7063 48.3622 42.3478 48.6704 42.1112 49.0554C41.9011 48.9986 41.6998 48.9119 41.5176 48.794C41.1502 48.5596 40.9328 48.3082 40.777 48.1406C40.6242 47.9702 40.5257 47.8792 40.4611 47.902C40.4023 47.9219 40.3729 48.0639 40.4596 48.3139C40.5448 48.5596 40.7608 48.9261 41.2237 49.2244C41.4294 49.3565 41.6557 49.4574 41.8908 49.5284C41.738 50.0085 41.7424 50.5554 41.9408 51.0838C41.9584 51.1264 41.9775 51.1676 41.9951 51.2102C40.9666 51.2486 40.0732 51.8835 39.8616 52.8196C39.6059 53.9517 40.4376 55.0895 41.7233 55.3636C41.8217 55.3835 41.9261 55.4006 42.0319 55.4105C41.8129 56.3409 42.1803 57.2997 43.0105 57.7585C44.0508 58.3324 45.4218 57.9034 46.0742 56.7969C46.1447 56.6775 46.2064 56.5483 46.2622 56.4105C46.396 56.4787 46.5311 56.5412 46.6649 56.5881C47.8991 57.027 49.2348 56.4986 49.6463 55.4119C49.8637 54.8381 49.7785 54.2258 49.4699 53.7088C50.0004 54.0355 50.6484 54.1804 51.2714 54.0852C52.0693 53.9758 52.7863 53.4716 53.1625 52.7883C53.9236 53.0497 54.8097 52.9474 55.4724 52.5042C56.1542 52.0682 56.573 51.2969 56.5906 50.5142C57.3297 50.4389 58.0291 50.044 58.4347 49.446C58.8902 48.804 58.9901 47.9531 58.7095 47.2329C58.6448 47.071 58.5757 46.9673 58.5258 46.9119C58.6257 46.8892 58.7726 46.8295 58.9548 46.7017C59.1209 46.5838 59.3119 46.4077 59.4794 46.1449C59.6469 45.8878 59.788 45.5454 59.8247 45.1349C59.8673 44.6846 59.8027 44.1917 59.5911 43.767ZM54.0074 46.4318C54.3086 46.2372 54.5731 45.9858 54.7832 45.6846C54.9904 45.3849 55.1418 45.0341 55.1903 44.6591C55.2402 44.2841 55.1814 43.8906 55.0198 43.5454C54.8582 43.2003 54.5937 42.902 54.269 42.7074C54.1911 42.6605 54.125 42.6349 54.0823 42.6165C54.0412 42.598 54.0236 42.5838 54.0236 42.5838C54.0236 42.5838 54.0412 42.598 54.0662 42.6349C54.0926 42.669 54.1264 42.7287 54.1749 42.7997C54.3718 43.0937 54.5187 43.3949 54.6216 43.7031C54.7245 44.0099 54.7803 44.3267 54.7788 44.6406C54.773 45.2656 54.532 45.9361 53.9986 46.4233C53.9281 46.4929 53.9207 46.4844 54.0074 46.4318ZM53.1831 49.8565C52.6996 50.2301 52.0516 50.4815 51.3522 50.4048C51.2523 50.3963 51.2567 50.3863 51.3493 50.4162C51.6814 50.5128 52.0369 50.5469 52.3925 50.5099C52.7496 50.473 53.1081 50.3679 53.427 50.1775C53.7459 49.9872 54.0162 49.7173 54.194 49.3991C54.3748 49.0824 54.4614 48.7216 54.4468 48.3679C54.4438 48.2827 54.4306 48.2187 54.4218 48.1775C54.4159 48.1349 54.4188 48.115 54.4188 48.115C54.4247 48.115 54.3909 48.196 54.316 48.3437C54.1734 48.652 54.0118 48.9318 53.8252 49.1861C53.6386 49.4417 53.427 49.6662 53.1831 49.8565ZM51.7636 38.7585C51.7519 38.723 51.7372 38.6775 51.7181 38.6278C51.5476 38.2202 51.2023 37.8721 50.785 37.6591C50.3677 37.4432 49.8711 37.3579 49.3965 37.4261C48.9233 37.4929 48.4869 37.6988 48.1342 37.9801C47.7831 38.2628 47.5098 38.6236 47.3378 39.0099C47.2923 39.1221 47.2835 39.1179 47.3481 39.017C47.57 38.6591 47.8918 38.3608 48.2606 38.1562C48.6294 37.9517 49.0423 37.8366 49.4449 37.8196C49.8476 37.8011 50.2414 37.8863 50.6072 38.0369C50.9716 38.1875 51.3125 38.3977 51.6064 38.696C51.6755 38.7684 51.7343 38.8238 51.7636 38.8665C51.7974 38.9077 51.8107 38.929 51.8107 38.929C51.8107 38.929 51.7989 38.9077 51.7872 38.8565C51.7783 38.8238 51.7695 38.794 51.7636 38.7585ZM46.9088 42.4091C46.6987 42.7159 46.5767 43.0809 46.5605 43.4503C46.5414 43.8167 46.6193 44.1818 46.7633 44.5071C46.9088 44.8338 47.116 45.1236 47.3658 45.3622C47.4392 45.429 47.4304 45.4332 47.376 45.3565C47.1762 45.0852 47.0396 44.7684 46.9749 44.446C46.9102 44.1207 46.9117 43.7926 46.969 43.4829C47.0249 43.1747 47.1365 42.8849 47.2835 42.6122C47.4304 42.3409 47.6038 42.0809 47.833 41.8338C47.8889 41.7756 47.9285 41.7244 47.9609 41.696C47.9917 41.6648 48.0094 41.6548 48.0094 41.6548C48.0094 41.6548 47.9902 41.6648 47.9476 41.6733C47.9065 41.6818 47.8389 41.6932 47.7566 41.7258C47.4157 41.8565 47.1174 42.1037 46.9088 42.4091ZM43.1662 42.3423C43.3382 42.0852 43.5409 41.8452 43.8069 41.6335C43.8715 41.5824 43.92 41.5398 43.9568 41.5156C43.992 41.4915 44.0111 41.4829 44.0111 41.4829C44.0111 41.4829 43.992 41.4886 43.948 41.4929C43.9039 41.4943 43.8363 41.4971 43.7481 41.517C43.3881 41.598 43.0546 41.8167 42.8136 42.1079C42.5726 42.3949 42.4169 42.7585 42.3757 43.1292C42.3316 43.4986 42.3875 43.8693 42.5109 44.2045C42.6373 44.5412 42.8253 44.8437 43.056 45.1037C43.1266 45.1747 43.1148 45.1804 43.0678 45.0966C42.8885 44.8096 42.771 44.4844 42.7254 44.1534C42.6799 43.8253 42.7004 43.4929 42.7798 43.1861C42.8577 42.8821 42.9943 42.6008 43.1662 42.3423ZM55.8809 40.6051C56.1806 41.0128 56.4157 41.4986 56.4936 42.0554C56.5083 42.1335 56.498 42.1335 56.5068 42.0554C56.5274 41.7784 56.5259 41.5014 56.4848 41.2187C56.4451 40.9375 56.3658 40.6534 56.2247 40.3892C56.0866 40.1264 55.8882 39.8863 55.6399 39.7102C55.393 39.5341 55.0977 39.4204 54.7935 39.3934C54.7201 39.3878 54.6628 39.3934 54.626 39.3963C54.5907 39.3977 54.5731 39.392 54.5731 39.392C54.5761 39.3863 54.6363 39.429 54.748 39.5128C55.2079 39.8508 55.5782 40.1974 55.8809 40.6051ZM45.8479 38.0312C45.8141 38.027 45.7612 38.0184 45.6921 38.0227C45.4085 38.0355 45.1279 38.1349 44.8898 38.2983C44.6503 38.4631 44.4578 38.6917 44.3359 38.9531C44.0875 39.4787 44.1463 40.0952 44.4196 40.544C44.4608 40.6065 44.4505 40.6094 44.4314 40.5398C44.355 40.2983 44.3506 40.0369 44.402 39.794C44.4578 39.5497 44.5666 39.3253 44.7032 39.1307C44.8384 38.9361 45 38.7684 45.1705 38.6108C45.3424 38.4531 45.5246 38.3011 45.7362 38.1449C45.8361 38.0639 45.8949 38.0241 45.8949 38.0312C45.8949 38.0312 45.8802 38.0355 45.8479 38.0312ZM45.8949 47.5497C45.7906 47.4375 45.7406 47.3721 45.7465 47.3707C45.7465 47.3707 45.7524 47.3892 45.7568 47.4275C45.7597 47.4659 45.7597 47.527 45.7759 47.6037C45.8435 47.9219 46.008 48.2287 46.2431 48.4758C46.4782 48.7258 46.7839 48.9162 47.1174 49.0241C47.7889 49.2429 48.5369 49.115 49.0717 48.7599C49.1467 48.7074 49.1511 48.7159 49.0673 48.75C48.7764 48.8736 48.4531 48.9176 48.1416 48.8934C47.8286 48.8693 47.5289 48.7798 47.2629 48.652C46.9955 48.5241 46.7574 48.3579 46.5356 48.1733C46.3122 47.9872 46.1036 47.7841 45.8949 47.5497Z" fill="#F6F6E9"/>
<path d="M47.7713 21.5881L47.7243 22.0454C47.7214 22.0653 47.7199 22.0838 47.717 22.1037C47.7155 22.1236 47.7126 22.1449 47.7111 22.1619L47.7096 22.1832C47.3114 25.4403 43.9127 27.7599 40.0747 27.375C36.2381 26.99 33.4066 24.0454 33.7063 20.777H33.7034L33.7666 20.1832C34.0399 17.6378 36.3703 15.7883 38.9741 16.0497C39.3576 16.0881 39.7191 16.1917 40.0467 16.3466C40.7859 16.6946 41.641 16.7812 42.4404 16.5852C42.7945 16.4986 43.1692 16.4702 43.5512 16.5085C46.155 16.7713 48.0446 19.0454 47.7713 21.5881Z" fill="#F9AAC0"/>
<mask id="mask2_80_20" style="mask-type:luminance" maskUnits="userSpaceOnUse" x="23" y="0" width="26" height="41">
<path d="M23.3222 0.0780945H48.9014V40.3636H23.3222V0.0780945Z" fill="white"/>
</mask>
<g mask="url(#mask2_80_20)">
<path d="M47.7023 22.2585L47.7155 22.2684L47.6817 22.2727L47.7023 22.2585ZM47.7757 22.1903L47.6876 22.2457L47.7008 22.2585L47.7508 22.2258C47.761 22.2088 47.7699 22.1974 47.7757 22.1903ZM47.7155 22.2684L47.7302 22.2798L47.7317 22.2755C47.7346 22.2727 47.7346 22.2684 47.7361 22.2656L47.7155 22.2684ZM43.657 7.80396C44.6033 5.89629 45.8626 4.13208 47.451 2.67185C47.9903 2.17753 49.395 1.33094 48.6089 0.481512C48.2283 0.0724214 47.7214 0.313899 47.3364 0.576683C46.9117 0.866455 46.5459 1.22441 46.2211 1.61361C45.0691 2.99288 44.2477 4.61362 43.5542 6.2443C42.8077 7.99856 42.22 9.81532 41.7395 11.6534C41.3369 13.1946 41.0107 14.7557 40.777 16.3295C40.5875 16.2826 40.4009 16.2201 40.2216 16.1392C39.866 15.9673 39.4458 15.8395 39.0329 15.7983C38.8286 15.7883 38.6244 15.7699 38.4216 15.7741C38.2174 15.7883 38.0116 15.7841 37.8103 15.8224C37.0022 15.9318 36.2205 16.2329 35.5651 16.7074C35.4843 16.7656 35.402 16.8238 35.3227 16.8849L35.0964 17.0838C34.9391 17.2102 34.8157 17.3707 34.6747 17.5113C34.4205 17.821 34.1854 18.1449 34.0134 18.5042C33.9708 18.5937 33.9238 18.6804 33.8841 18.7713L33.7798 19.0497C33.699 19.2315 33.6681 19.429 33.6123 19.6179C33.5711 19.8096 33.5447 20.0071 33.5168 20.1974L33.458 20.7557L33.4271 21.0469L33.4418 21.0454C33.4139 21.794 33.5462 22.544 33.8209 23.2415C34.1295 24.0284 34.6115 24.7443 35.2095 25.3466C36.3997 26.5611 38.041 27.3125 39.7308 27.5326C41.4221 27.7628 43.1986 27.4872 44.6856 26.6591C45.4277 26.25 46.0962 25.7116 46.6267 25.0625C47.1601 24.4162 47.5495 23.6576 47.7464 22.8523C47.8051 22.5554 47.8228 22.3551 47.8184 22.2585H47.8242L47.8139 22.2216C47.8139 22.2173 47.8125 22.2159 47.8125 22.2116L47.8081 22.1946C47.8007 22.1733 47.7934 22.1704 47.7802 22.1932L47.764 22.223L47.7552 22.2273C47.7493 22.2372 47.7419 22.2514 47.739 22.2684H47.7405L47.7346 22.2798C47.6964 22.3792 47.6508 22.5582 47.5965 22.8182C47.3966 23.6008 47.0072 24.3324 46.4797 24.9531C45.9566 25.5767 45.2998 26.0909 44.5739 26.4787C43.1222 27.2613 41.3956 27.5028 39.769 27.2599C38.1395 27.0241 36.5805 26.2798 35.4667 25.1122C34.9098 24.5312 34.4645 23.8494 34.1883 23.1122C33.9076 22.3736 33.8004 21.5767 33.8797 20.7983L33.8885 20.7145L33.9429 20.2415C33.9723 20.0611 33.9973 19.8849 34.0369 19.7088C34.0913 19.5355 34.1207 19.3579 34.1971 19.1917L34.2956 18.9403C34.3308 18.8565 34.3764 18.777 34.416 18.696C34.5762 18.3721 34.7937 18.0781 35.0273 17.7997C35.2756 17.5369 35.5357 17.2784 35.8443 17.0781C36.4394 16.6548 37.1491 16.3878 37.8779 16.2954C38.0587 16.2613 38.2453 16.267 38.4275 16.2571C38.6097 16.2528 38.7948 16.2727 38.977 16.2826C39.337 16.3238 39.6735 16.4233 40.0056 16.5866C40.2319 16.6903 40.4699 16.7699 40.7124 16.8281C40.683 17.0554 40.6536 17.2826 40.6272 17.5085C40.5787 17.9219 41.2487 17.919 41.2972 17.5085C41.3207 17.3139 41.3486 17.1207 41.3751 16.9261C41.7277 16.9488 42.0819 16.9233 42.4272 16.8494C42.7974 16.7571 43.1369 16.7287 43.4969 16.7613C43.6747 16.7883 43.8569 16.8125 44.0361 16.8466C44.2095 16.8977 44.3917 16.9261 44.5592 16.9971C45.939 17.463 47.0322 18.6335 47.3864 20.0028C47.57 20.6903 47.57 21.2273 47.5935 21.5923C47.6024 21.9716 47.6508 22.1648 47.7155 22.1704C47.7831 22.179 47.8668 21.9957 47.9579 21.6292C48.0388 21.2514 48.1093 20.6434 47.9036 19.8721C47.5113 18.3451 46.2917 17.0355 44.7444 16.5156C44.5563 16.4389 44.355 16.4048 44.1581 16.3494C43.9583 16.3068 43.757 16.2826 43.5542 16.2542C43.1428 16.2145 42.7019 16.2585 42.3214 16.3565C42.0334 16.4204 41.738 16.4432 41.4427 16.4304C41.8614 13.5099 42.6138 10.6079 43.6453 7.84231C43.6423 7.82384 43.6497 7.8139 43.657 7.80396ZM38.6303 40.1648C36.2748 38.9616 33.9076 37.7528 31.536 36.544C29.1733 35.3295 26.8266 34.0895 24.527 32.7741C24.2479 32.615 24.0421 32.4858 23.904 32.4048C23.7659 32.3238 23.6954 32.2869 23.6954 32.2869C23.6954 32.2869 23.7674 32.3196 23.9187 32.3764C24.0701 32.4332 24.3008 32.5099 24.602 32.6264C27.0926 33.5909 29.473 34.7983 31.7829 36.1108C34.0987 37.4204 36.3542 38.8182 38.6391 40.1505C38.9623 40.3423 38.9682 40.3324 38.6303 40.1648Z" fill="#F6F6E9"/>
</g>
<path d="M6.51088 40.821C7.43954 40.3778 8.36378 39.956 9.24983 39.5639C9.58485 39.4148 9.91546 39.2699 10.2387 39.1278C10.5811 39.1179 10.9249 39.1122 11.2688 39.1065C13.035 39.0696 14.8027 39.0795 16.5703 39.1335C18.7509 39.2031 20.8727 39.3977 22.9783 39.7571C23.8703 40.1847 24.724 40.6122 25.5351 41.0327C22.4934 41.0554 19.4694 40.9758 16.4263 40.9062C14.6528 40.8679 12.8777 40.875 11.1071 40.9276C9.55252 40.9744 8.03464 41.0895 6.51088 40.821ZM33.1979 45.4687C33.0642 45.3807 32.9261 45.2912 32.7806 45.1989C30.6824 44.6136 28.4474 44.3366 26.3183 44.0568C23.4015 43.6733 20.4642 43.4929 17.524 43.3707C14.7336 43.2557 11.9417 43.2372 9.14844 43.2514C7.14272 43.2614 4.94745 43.0895 2.89912 43.3878C2.46271 43.9332 2.11006 44.5355 1.84998 45.1776C4.15839 45.6349 6.69162 45.3125 9.01031 45.294C11.8095 45.2713 14.6102 45.294 17.4093 45.3608C20.1997 45.4276 22.9842 45.5895 25.7687 45.7585C28.5782 45.929 31.4141 46.3949 34.2265 46.3892C34.2383 46.3892 34.2486 46.3892 34.2588 46.3864C34.1883 46.3054 34.1148 46.2273 34.037 46.1491C33.7872 45.8963 33.5065 45.6662 33.1979 45.4687ZM30.6824 49.2898C27.2543 48.4901 23.7174 48.2344 20.1997 48.0625C18.4306 47.9744 16.6629 47.9446 14.8908 47.946C13.3083 47.9489 11.5068 47.8125 10.1065 48.6406C9.96689 48.7258 9.97423 48.9347 10.1197 49.0099C11.5112 49.7273 13.2201 49.5582 14.7483 49.5611C16.5204 49.5611 18.2925 49.5952 20.0616 49.6278C23.5852 49.6932 27.1117 49.9233 30.6339 49.8253C30.9557 49.8139 30.9895 49.3608 30.6824 49.2898ZM32.2149 24.0412C32.4662 24.3352 32.7704 24.5781 33.1127 24.767C33.2846 24.8622 33.4668 24.9446 33.6593 24.9915C33.8268 25.0327 34.0428 25.0866 34.2133 25.044C34.3029 25.0227 34.2912 24.9091 34.2236 24.8707C34.084 24.7855 33.893 24.7614 33.7402 24.6932C33.5785 24.625 33.4169 24.5597 33.2641 24.4744C32.9555 24.3025 32.6763 24.0668 32.4486 23.8011C32.209 23.5256 32.021 23.2088 31.8858 22.8722C31.7462 22.5241 31.6845 22.1506 31.5405 21.8054C31.5199 21.7557 31.4391 21.7528 31.4273 21.8111C31.345 22.2088 31.4582 22.6193 31.6037 22.9943C31.7477 23.3693 31.9504 23.7301 32.2149 24.0412ZM32.7586 27.8594C34.1648 28.1236 35.6474 27.8977 36.9346 27.2983C37.0815 27.2287 36.9934 27.0014 36.842 27.0668C35.5872 27.6122 34.1839 27.7585 32.8335 27.4972C32.2076 27.375 31.6037 27.1605 31.0394 26.8665C30.4943 26.5795 29.9991 26.2131 29.4642 25.9133C29.4143 25.8849 29.3643 25.9446 29.3908 25.99C30.0711 27.0568 31.5405 27.6307 32.7586 27.8594ZM39.9469 28.3565C40.0527 28.2329 39.866 28.1008 39.7544 28.2045C38.8419 29.0525 37.6811 29.6562 36.4629 29.973C35.7664 30.1534 35.0494 30.2543 34.3279 30.2827C33.6094 30.3111 32.8879 30.2869 32.1694 30.3295C32.0724 30.3366 32.0709 30.4602 32.1547 30.4858C33.5741 30.9432 35.2536 30.8153 36.6686 30.3963C37.9397 30.017 39.099 29.3551 39.9469 28.3565ZM50.4912 28.4503C50.4016 27.9119 50.2517 27.3878 50.0386 26.8835C49.6125 25.8821 48.9792 25.0057 48.1328 24.2983C47.9727 24.1648 47.7611 24.3878 47.9109 24.5312C48.6456 25.2429 49.2496 26.1179 49.6301 27.054C49.8138 27.5114 49.9593 27.9872 50.0445 28.4702C50.1283 28.9446 50.1018 29.4787 50.2781 29.9304C50.3031 29.9929 50.4016 30.0099 50.4354 29.9432C50.6528 29.4986 50.5705 28.9204 50.4912 28.4503ZM45.8949 26.2358C45.8391 26.1719 45.7274 26.2514 45.7598 26.3224C46.1139 27.1847 46.4489 28.054 46.5136 28.99C46.5459 29.4517 46.5224 29.9148 46.4386 30.3707C46.3607 30.8026 46.1727 31.2401 46.1653 31.679C46.1638 31.7642 46.277 31.7855 46.3314 31.7329C46.6693 31.4062 46.7869 30.8551 46.8618 30.4133C46.9456 29.9219 46.9691 29.4176 46.9294 28.9204C46.8501 27.9588 46.565 26.9758 45.8949 26.2358ZM43.0149 27.8054C42.8665 28.0753 42.8034 28.3764 42.7093 28.669C42.6079 28.9815 42.4801 29.2841 42.3317 29.5781C42.0393 30.1562 41.6558 30.6847 41.2135 31.1662C40.7756 31.6449 40.2687 32.0582 39.7088 32.3991C39.4296 32.5668 39.146 32.7173 38.8507 32.8565C38.6244 32.9645 38.2453 33.1065 38.1762 33.3636C38.163 33.4133 38.188 33.473 38.2277 33.5043C38.4657 33.6832 38.9051 33.5142 39.149 33.4091C39.4737 33.267 39.7896 33.1008 40.0864 32.9062C40.6624 32.527 41.1841 32.0625 41.6308 31.5426C42.076 31.027 42.4389 30.4418 42.7152 29.8267C42.9753 29.2472 43.3059 28.4687 43.1678 27.8295C43.1487 27.7585 43.0546 27.7344 43.0149 27.8054ZM46.5165 20.3508C46.4401 19.7855 46.2755 19.2102 45.986 18.6747C45.8391 18.4091 45.6643 18.1534 45.4527 17.9233C45.2411 17.6946 44.9766 17.473 44.6327 17.3494C44.4608 17.2912 44.3374 17.4375 44.3109 17.5952C44.283 17.7557 44.3036 17.919 44.4006 17.956C44.8194 18.1222 45.2293 18.5426 45.5643 18.956C45.8979 19.3835 46.1638 19.8693 46.3255 20.392C46.349 20.4673 46.5283 20.4332 46.5165 20.3508Z" fill="#F9AABB"/>
<path d="M60.3155 48.8466C60.5051 50.429 59.093 51.571 57.8484 52.3551C57.2195 52.7514 56.5568 51.7926 57.1945 51.4347C58.373 50.7742 59.2429 49.9645 59.813 48.7557C59.9232 48.5171 60.2861 48.6023 60.3155 48.8466ZM58.3392 54.1563C57.1475 54.2344 56.0175 54.2983 54.9449 53.7046C54.2675 53.331 53.6871 54.4247 54.3909 54.7443C55.6781 55.3296 57.4179 55.4631 58.4244 54.321C58.4817 54.2557 58.4273 54.1506 58.3392 54.1563ZM51.508 54.5781C51.3993 54.4915 51.217 54.5867 51.2391 54.7245C51.4007 55.6847 51.1803 56.6165 50.6425 57.4247C50.2193 58.0568 51.3272 58.5696 51.7401 57.9333C52.4469 56.8438 52.6071 55.4531 51.508 54.5781ZM64.0771 51.6179C62.8605 51.179 61.397 52.0213 60.6579 52.9659C60.2509 53.4858 61.0429 54.1648 61.444 53.6392C62.0273 52.8736 63.0559 52.0881 64.0316 51.8793C64.1506 51.8523 64.2256 51.6705 64.0771 51.6179ZM40.2833 50.3168C39.8307 50.1932 39.4384 50.3381 38.9917 50.4091C38.4671 50.4915 37.947 50.4588 37.4298 50.358C36.8229 50.2401 36.6554 51.1364 37.2534 51.2685C38.1571 51.4673 39.988 51.5469 40.3774 50.4901C40.4067 50.4105 40.3671 50.3395 40.2833 50.3168ZM38.4422 49.4915C38.6479 49.1492 38.7507 48.7372 38.9388 48.3779C39.1534 47.9716 39.3576 47.5938 39.7132 47.2827C39.8822 47.135 39.7103 46.8977 39.5075 47.0029C38.6582 47.446 37.6061 48.1662 37.5385 49.2017C37.5047 49.7216 38.1571 49.9702 38.4422 49.4915ZM36.2205 53.5014C35.3829 53.4048 34.3896 52.5057 34.2089 51.7088C34.0693 51.0895 33.0524 51.3921 33.2273 52.0185C33.5947 53.3168 34.8613 53.9858 36.1969 53.885C36.4188 53.8708 36.4526 53.5284 36.2205 53.5014ZM39.3311 54.706C39.0373 54.5483 38.8242 54.1662 38.667 53.8935C38.5009 53.6037 38.2982 53.277 38.1865 52.9617C38.0895 52.6904 37.6722 52.7429 37.6208 53.0128C37.515 53.5583 37.5003 54.0029 37.7457 54.5284C37.9793 55.0242 38.3452 55.4673 38.8286 55.7486C39.4781 56.1279 40.0027 55.0696 39.3311 54.706ZM46.6017 57.6193C45.8832 57.4063 45.6319 58.6066 46.4004 58.7614C46.8162 58.8438 47.2188 58.8779 47.617 59.0384C48.0006 59.1946 48.3238 59.4418 48.6603 59.6733C48.8263 59.787 49.1246 59.6449 49.0174 59.4304C48.5354 58.4418 47.6611 57.9318 46.6017 57.6193ZM49.2892 54.6591C49.1364 55.2827 48.628 55.8381 47.9726 55.9943C47.3658 56.1406 46.6384 55.9887 46.105 55.6591C45.7994 56.1307 45.2807 56.4887 44.7605 56.6946C44.2183 56.9048 43.4131 57.0085 42.9414 56.5909C42.4507 56.1563 42.533 55.3679 42.7122 54.7671C41.9687 54.8338 41.2208 54.4958 40.8593 53.8324C40.4949 53.1591 40.536 52.1833 41.3119 51.8139C41.3839 51.7798 41.4353 51.8906 41.3751 51.9318C41.1091 52.1066 41.0063 52.537 40.9754 52.8324C40.9416 53.1548 41.0195 53.4915 41.1914 53.7671C41.5455 54.3409 42.2596 54.5824 42.9179 54.4389C43.0414 54.412 43.1045 54.5568 43.0693 54.6477C42.8915 55.1179 42.721 55.8665 43.0634 56.3012C43.4131 56.7429 44.2036 56.6122 44.6606 56.4361C45.1602 56.2443 45.6819 55.8864 45.9375 55.4176C45.9787 55.3409 46.0757 55.3182 46.1491 55.3722C47.1454 56.0909 48.797 55.929 49.1643 54.635C49.1849 54.5625 49.3112 54.581 49.2892 54.6591Z" fill="#F6F6E9"/>
<path d="M69.1363 19.2926C63.1426 19.2926 61.8569 20.5355 61.8569 26.3352C61.8569 20.5355 60.5712 19.2926 54.5775 19.2926C60.5712 19.2926 61.8569 18.0497 61.8569 12.2514C61.8554 18.0497 63.1397 19.2926 69.1363 19.2926ZM14.854 26.6889C14.854 30.5511 13.9974 31.3792 10.0065 31.3792C13.9974 31.3792 14.854 32.2059 14.854 36.0682C14.854 32.2059 15.7092 31.3792 19.7001 31.3792C15.7092 31.3792 14.854 30.5511 14.854 26.6889ZM42.361 34.3963C42.361 37.3821 41.6998 38.0213 38.6141 38.0213C41.6998 38.0213 42.361 38.6591 42.361 41.6449C42.361 38.6591 43.0208 38.0213 46.108 38.0213C43.0208 38.0227 42.361 37.3821 42.361 34.3963ZM74.5245 68.5611C74.5245 71.5454 73.8647 72.1846 70.7776 72.1846C73.8647 72.1846 74.5245 72.8238 74.5245 75.8096C74.5245 72.8238 75.1843 72.1846 78.2715 72.1846C75.1872 72.1875 74.5245 71.5454 74.5245 68.5611ZM25.535 11.2045C25.535 14.1903 24.8753 14.8281 21.7896 14.8281C24.8753 14.8281 25.535 15.4673 25.535 18.4531C25.535 15.4673 26.1963 14.8281 29.282 14.8281C26.1977 14.8281 25.535 14.1903 25.535 11.2045Z" fill="#F9AABB"/>
<path d="M29.3614 14.6989C28.4283 14.6974 27.1485 14.7443 26.4343 14.0398C25.7173 13.3295 25.7511 12.0994 25.7496 11.1847C25.7496 10.9929 25.322 11.071 25.322 11.2273C25.3191 12.1193 25.3661 13.348 24.6843 14.0526C24.0128 14.7457 22.7623 14.6974 21.866 14.6989C21.7778 14.6989 21.625 14.723 21.5883 14.8168C21.5545 14.902 21.6177 14.9602 21.7088 14.9602C22.6418 14.9631 23.9231 14.9162 24.6358 15.6193C25.3529 16.3295 25.3191 17.5611 25.322 18.4759C25.322 18.5469 25.3822 18.581 25.4587 18.5867C25.4763 18.5895 25.4983 18.5867 25.5189 18.5852C25.5248 18.5852 25.5292 18.5852 25.5351 18.5852C25.6423 18.571 25.7496 18.5114 25.7496 18.4332C25.7511 17.5398 25.7055 16.3111 26.3873 15.608C27.0574 14.9134 28.3093 14.9631 29.2041 14.9602C29.2923 14.9602 29.4451 14.9361 29.4833 14.8423C29.5171 14.7557 29.4539 14.6989 29.3614 14.6989ZM26.5945 15.1165C26.0508 15.3906 25.729 15.8466 25.5498 16.3849C25.4939 16.2003 25.4219 16.0199 25.3279 15.8509C24.9826 15.233 24.3316 14.9446 23.6425 14.821H23.6396C23.932 14.7599 24.2126 14.6733 24.4742 14.5412C25.0178 14.267 25.3411 13.8111 25.5189 13.2727C25.5747 13.4574 25.6467 13.6378 25.7408 13.8068C26.0876 14.4247 26.737 14.7131 27.4262 14.8367H27.4291C27.1396 14.8977 26.856 14.9844 26.5945 15.1165ZM78.3508 72.0554C77.4177 72.0526 76.1364 72.0994 75.4238 71.3963C74.7067 70.6861 74.7405 69.4546 74.7391 68.5398C74.7391 68.3494 74.31 68.4261 74.31 68.5824C74.3085 69.4759 74.3541 70.7046 73.6737 71.4077C73.0022 72.1023 71.7503 72.0526 70.8555 72.0554C70.7673 72.0554 70.6145 72.0796 70.5763 72.1733C70.5425 72.2585 70.6057 72.3168 70.6982 72.3168C71.6313 72.3182 72.9126 72.2727 73.6253 72.9759C74.3423 73.6861 74.3085 74.9176 74.31 75.831C74.31 75.902 74.3717 75.9375 74.4466 75.9432C74.4657 75.9446 74.4863 75.9432 74.5084 75.9418C74.5142 75.9418 74.5186 75.9418 74.5245 75.9418C74.6318 75.9276 74.7376 75.8679 74.7376 75.7884C74.7405 74.8963 74.695 73.6676 75.3753 72.9645C76.0468 72.2699 77.2987 72.3182 78.1936 72.3168C78.2818 72.3168 78.4346 72.2926 78.4728 72.1989C78.5066 72.1136 78.4434 72.0554 78.3508 72.0554ZM75.5854 72.4744C75.0417 72.7486 74.72 73.2045 74.5407 73.7429C74.4848 73.5582 74.4128 73.3778 74.3188 73.2088C73.9735 72.5909 73.3226 72.3026 72.6334 72.179H72.6319C72.9229 72.1179 73.2035 72.0313 73.4651 71.8992C74.0088 71.625 74.332 71.169 74.5098 70.6321C74.5657 70.8153 74.6377 70.9972 74.7317 71.1648C75.0785 71.7841 75.728 72.071 76.4171 72.1946H76.42C76.1276 72.2557 75.8455 72.3438 75.5854 72.4744ZM46.1873 37.8906C45.2543 37.8892 43.973 37.9361 43.2603 37.2315C42.5433 36.5213 42.577 35.2912 42.5741 34.3764C42.5741 34.1861 42.1465 34.2628 42.1465 34.419C42.145 35.3111 42.1906 36.5398 41.5088 37.2443C40.8388 37.9375 39.5868 37.8892 38.692 37.8906C38.6038 37.8906 38.451 37.9148 38.4128 38.0085C38.379 38.0938 38.4422 38.152 38.5348 38.152C39.4678 38.1548 40.7477 38.108 41.4618 38.8111C42.1788 39.5213 42.145 40.7528 42.1465 41.6676C42.1465 41.7386 42.2082 41.7727 42.2832 41.7784C42.3023 41.7813 42.3228 41.7784 42.3434 41.777C42.3508 41.777 42.3537 41.777 42.361 41.777C42.4683 41.7628 42.5741 41.7045 42.5741 41.625C42.577 40.733 42.53 39.5028 43.2118 38.7997C43.8833 38.1065 45.1338 38.1548 46.0301 38.152C46.1183 38.152 46.2711 38.1278 46.3078 38.0355C46.3416 37.9503 46.277 37.8906 46.1873 37.8906ZM43.419 38.3111C42.8768 38.5852 42.5535 39.0412 42.3757 39.5781C42.3184 39.3935 42.2479 39.2131 42.1524 39.0455C41.8071 38.4261 41.1576 38.1378 40.467 38.0142H40.4655C40.7565 37.9531 41.0371 37.8665 41.3001 37.7344C41.8424 37.4617 42.1656 37.0043 42.3434 36.4673C42.4007 36.652 42.4713 36.8324 42.5668 37C42.9121 37.6193 43.5615 37.9077 44.2522 38.0313H44.2536C43.9627 38.0923 43.682 38.179 43.419 38.3111ZM19.7809 31.2486C18.7112 31.2472 17.4725 31.267 16.4998 30.7656C15.7151 30.3622 15.3713 29.5952 15.2185 28.7841C15.0862 28.0895 15.0686 27.375 15.0671 26.669C15.0671 26.4787 14.6395 26.5554 14.6395 26.7117C14.6381 27.7457 14.6542 28.9361 14.159 29.8835C13.7667 30.6364 13.0291 30.9688 12.2033 31.1108C11.5068 31.2301 10.7927 31.2472 10.0859 31.2486C9.99773 31.2486 9.84492 31.2727 9.80671 31.3665C9.77292 31.4517 9.8361 31.5099 9.92867 31.5099C10.9984 31.5128 12.2371 31.4915 13.2098 31.9929C13.9945 32.3963 14.3383 33.1634 14.4911 33.9744C14.6234 34.6705 14.6395 35.3835 14.641 36.0895C14.641 36.1605 14.7027 36.196 14.7777 36.2017C14.904 36.2117 15.0686 36.1449 15.0686 36.0469C15.0715 35.0128 15.0554 33.8224 15.5491 32.875C15.9414 32.1236 16.679 31.7898 17.5048 31.6477C18.2013 31.5284 18.9169 31.5128 19.6237 31.5099C19.7119 31.5099 19.8647 31.4858 19.9014 31.3935C19.9352 31.3054 19.872 31.2486 19.7809 31.2486ZM16.2456 31.7841C15.4888 32.169 15.0759 32.8367 14.8702 33.6037C14.7924 33.2969 14.6836 33.0014 14.5279 32.7259C14.0841 31.9276 13.2436 31.5597 12.3561 31.4034C12.3017 31.392 12.2459 31.3892 12.1901 31.3793C12.6368 31.2997 13.0688 31.1761 13.4655 30.973C14.2222 30.5881 14.6351 29.9205 14.8408 29.1534C14.9187 29.4602 15.0275 29.7557 15.1832 30.0313C15.627 30.8295 16.4675 31.1974 17.355 31.3537C17.4093 31.3651 17.4652 31.3679 17.5195 31.3793C17.0714 31.4574 16.6394 31.581 16.2456 31.7841ZM69.2141 19.1634C68.2223 19.1634 67.2217 19.1392 66.2386 18.9986C65.5466 18.902 64.8442 18.7415 64.2256 18.4162C63.031 17.794 62.5137 16.6136 62.286 15.375C62.0979 14.3381 62.0714 13.2798 62.0685 12.2287C62.0685 12.0384 61.6409 12.1151 61.6409 12.2713C61.6409 13.2145 61.6159 14.1619 61.4793 15.0966C61.3808 15.7756 61.2236 16.4631 60.8989 17.0781C60.2935 18.2202 59.1459 18.733 57.8866 18.9503C56.8228 19.1349 55.731 19.1591 54.6554 19.1605C54.5673 19.1605 54.4145 19.1847 54.3762 19.2784C54.3424 19.3636 54.4056 19.4233 54.4982 19.4233C55.49 19.4233 56.4892 19.4474 57.4723 19.5867C58.1643 19.6847 58.8667 19.8438 59.4853 20.169C60.6814 20.7912 61.1986 21.9716 61.4249 23.2117C61.613 24.2472 61.6409 25.3068 61.6424 26.3565C61.6424 26.4276 61.7041 26.4617 61.779 26.4688C61.7967 26.4702 61.8143 26.4688 61.8334 26.4659C61.8422 26.4659 61.8481 26.4659 61.8569 26.4659C61.9642 26.4517 62.0714 26.3935 62.0714 26.3139C62.0714 25.3707 62.0964 24.4247 62.2316 23.4886C62.3301 22.8097 62.4873 22.1222 62.8135 21.5071C63.4189 20.3651 64.565 19.8523 65.8257 19.6349C66.8881 19.4503 67.9813 19.4261 69.0569 19.4247C69.1451 19.4247 69.2979 19.4006 69.3361 19.3068C69.3684 19.2202 69.3067 19.1634 69.2141 19.1634ZM63.9699 19.9602C62.7253 20.6023 62.1317 21.7798 61.8775 23.0796C61.8716 23.1122 61.8672 23.1449 61.8613 23.1761C61.7496 22.5398 61.5763 21.9091 61.2574 21.3395C60.5962 20.1605 59.3516 19.6207 58.0394 19.3906C57.8293 19.3537 57.6177 19.3239 57.4076 19.2969C58.2275 19.1889 59.0269 18.9929 59.741 18.6236C60.987 17.9801 61.5807 16.804 61.8334 15.5043C61.8408 15.4716 61.8437 15.4389 61.851 15.4063C61.9612 16.044 62.1361 16.6747 62.455 17.2443C63.1147 18.4233 64.3608 18.9617 65.6729 19.1932C65.883 19.2301 66.0946 19.2599 66.3033 19.2869C65.4834 19.3949 64.6855 19.5909 63.9699 19.9602Z" fill="#F6F6E9"/>
</svg>
