<svg width="239" height="239" viewBox="0 0 239 239" fill="none" xmlns="http://www.w3.org/2000/svg">
<g clip-path="url(#clip0_145_3)">
<path d="M150.857 84.9089C150.86 84.9923 150.86 85.0693 150.857 85.1527C150.841 87.7706 150.787 90.4624 150.71 93.1669C150.665 94.7004 150.607 96.2372 150.549 97.7707C150.424 101.056 150.27 104.309 150.1 107.424C149.901 111.046 149.693 114.489 149.474 117.562C149.256 120.822 149.035 123.68 148.862 125.926C148.576 129.487 146.651 132.699 143.645 134.64C134.906 140.293 121.54 146.866 114.909 150.023C112.262 151.284 109.23 151.496 106.443 150.575C95.2811 146.876 80.7286 139.789 72.6342 135.666C68.8453 133.745 66.4327 129.875 66.3878 125.628C66.3654 123.369 66.3557 121.12 66.3589 118.884C66.375 114.909 66.4295 111.005 66.5129 107.283C66.5386 106.003 66.5675 104.739 66.6028 103.517C66.6637 101.303 66.7311 99.1887 66.8049 97.1868C66.8273 96.6189 66.8466 96.0575 66.8658 95.5057C66.8979 94.7485 66.9236 94.0139 66.9525 93.2984C67.0359 91.258 67.1225 89.3844 67.2027 87.7225C67.2508 86.7601 67.2957 85.8682 67.3374 85.0565C67.3503 84.8768 67.3567 84.7068 67.3663 84.5335C67.5492 81.1457 69.2175 78.008 71.938 75.9804C80.9211 69.2752 95.5602 62.1786 102.801 58.8421C105.576 57.5684 108.749 57.4401 111.611 58.5213C126.998 64.3538 138.958 71.1103 145.439 75.1174C148.512 77.0199 150.488 80.2442 150.809 83.7989C150.841 84.1678 150.86 84.54 150.857 84.9089Z" fill="#DD7B4A"/>
<path d="M151.448 93.9882C151.438 94.9924 151.435 96.0864 151.425 97.2606C151.406 98.4348 151.338 99.6924 151.284 101.033L151.091 105.195C151.03 106.58 150.96 107.973 150.864 109.359L150.347 117.678L149.728 125.993C149.494 128.977 148.124 131.845 145.958 133.902C145.416 134.412 144.835 134.887 144.21 135.291L142.432 136.417L140.639 137.505L138.83 138.563C136.414 139.959 133.976 141.3 131.512 142.602C126.59 145.208 121.611 147.687 116.593 150.087C115.952 150.386 115.368 150.684 114.665 150.982C113.982 151.268 113.273 151.486 112.548 151.64C111.098 151.945 109.593 151.987 108.13 151.752C107.408 151.64 106.667 151.444 105.993 151.213L104.014 150.524C102.702 150.046 101.393 149.555 100.097 149.045C94.9057 146.998 89.8175 144.733 84.787 142.355C82.2685 141.165 79.7693 139.949 77.2797 138.711L73.555 136.834C72.9358 136.516 72.3262 136.215 71.675 135.843C71.0558 135.458 70.4462 135.041 69.904 134.547C68.7972 133.594 67.8957 132.41 67.1995 131.13C66.5354 129.83 66.067 128.422 65.9098 126.966C65.8103 126.24 65.8232 125.503 65.82 124.822V122.734L65.8296 118.563C65.9515 107.44 66.3365 96.3238 66.9396 85.2233C66.9717 84.5432 67.0198 83.8085 67.1482 83.1059C67.2701 82.4001 67.469 81.7071 67.7224 81.0366C68.2229 79.6923 68.9801 78.4475 69.9233 77.376C70.3917 76.8338 70.9242 76.3462 71.4825 75.9066C72.0471 75.4703 72.615 75.0853 73.186 74.6747C74.3314 73.8822 75.4863 73.1059 76.667 72.368C81.3702 69.3939 86.2596 66.7375 91.2099 64.2223C93.6834 62.9647 96.1794 61.7423 98.6882 60.5585C99.9394 59.9618 101.2 59.3811 102.461 58.8068C103.728 58.2036 105.105 57.8058 106.507 57.6871C107.912 57.562 109.333 57.6903 110.687 58.0721C111.37 58.255 112.012 58.5341 112.654 58.7843L114.588 59.5447C117.161 60.5874 119.715 61.6685 122.243 62.8074C127.296 65.0885 132.262 67.562 137.116 70.2441C139.542 71.5819 141.942 72.9679 144.303 74.4148C144.89 74.7805 145.487 75.1302 146.054 75.5313C146.619 75.9323 147.142 76.3911 147.623 76.8884C148.583 77.8829 149.369 79.0539 149.908 80.3308C150.527 81.7809 150.671 82.9776 150.7 83.754C150.697 84.54 150.645 84.925 150.585 84.925C150.52 84.925 150.447 84.54 150.357 83.786C150.232 83.0417 150.026 81.9124 149.43 80.5329C148.91 79.3202 148.156 78.2134 147.238 77.2701C146.773 76.8017 146.276 76.3654 145.737 75.99C145.204 75.6211 144.601 75.2682 144.014 74.9057C141.653 73.4844 139.256 72.1145 136.831 70.7927C131.983 68.1491 127.02 65.7173 121.977 63.4748C119.449 62.3551 116.901 61.2932 114.332 60.2697L112.397 59.5222L111.428 59.1501C111.117 59.0346 110.809 58.9287 110.495 58.8421C109.23 58.4956 107.912 58.3737 106.609 58.4956C105.297 58.6143 104.04 58.98 102.84 59.5543C101.585 60.1382 100.331 60.7285 99.0861 61.3317C96.5933 62.5283 94.1101 63.7635 91.6526 65.0307C86.7376 67.5685 81.8803 70.2473 77.2348 73.2246C76.0702 73.9689 74.9313 74.7388 73.8052 75.5345C73.2566 75.9387 72.6695 76.343 72.153 76.7472C71.6429 77.1482 71.1681 77.5942 70.7414 78.085C69.888 79.0635 69.2078 80.196 68.7587 81.4184C68.5341 82.0279 68.3545 82.6567 68.2486 83.2952C68.1363 83.9432 68.0978 84.556 68.0657 85.2811C67.5396 96.3687 67.2187 107.485 67.1578 118.595L67.1706 122.763L67.1802 124.845C67.1867 125.185 67.1706 125.557 67.1963 125.868L67.2187 126.353L67.2733 126.834C67.4209 128.117 67.8476 129.359 68.4411 130.501C69.0667 131.63 69.8687 132.663 70.8537 133.497C71.3349 133.927 71.8739 134.287 72.4225 134.62C72.9647 134.935 73.6127 135.246 74.2255 135.557L77.9503 137.412C80.4398 138.637 82.9391 139.834 85.4511 141.005C90.4784 143.347 95.5506 145.586 100.706 147.585C101.996 148.085 103.289 148.563 104.585 149.032L106.539 149.702C107.168 149.914 107.777 150.065 108.416 150.161C109.683 150.35 110.985 150.302 112.237 150.023C112.865 149.885 113.475 149.689 114.065 149.439L114.505 149.243L115.91 148.57C120.905 146.164 125.855 143.677 130.742 141.075C133.18 139.77 135.602 138.435 137.992 137.049C139.186 136.356 140.366 135.644 141.537 134.925C142.112 134.556 142.712 134.19 143.267 133.822C143.802 133.475 144.296 133.061 144.762 132.622C146.61 130.844 147.774 128.384 147.957 125.823L148.573 117.54C148.743 114.778 148.916 112.015 149.086 109.256C149.176 107.877 149.247 106.494 149.311 105.111L149.507 100.969C149.571 99.6283 149.635 98.3738 149.693 97.206C149.741 96.035 149.789 94.9475 149.827 93.9433C149.924 91.9349 150.036 90.2602 150.148 88.9256C150.379 86.25 150.636 84.9185 150.848 84.925C151.072 84.9282 151.252 86.2788 151.351 88.9673C151.425 90.2923 151.451 91.9734 151.448 93.9882Z" fill="#56091F"/>
<path d="M216.061 133.263C216.061 136.526 216.039 139.391 216.013 141.643C215.971 145.214 214.268 148.554 211.403 150.687C203.065 156.921 190.174 164.383 183.777 167.986C181.22 169.423 178.214 169.84 175.365 169.109C163.976 166.176 148.98 160.097 140.623 156.536C136.715 154.874 134.043 151.181 133.709 146.94C133.533 144.691 133.372 142.445 133.228 140.216C132.971 136.25 132.76 132.346 132.59 128.627C132.423 125.047 132.294 121.653 132.198 118.538C132.079 114.948 132.006 111.736 131.958 109.067C131.938 108.104 131.919 107.209 131.909 106.398C131.909 106.218 131.906 106.045 131.9 105.875C131.855 102.484 133.305 99.2368 135.888 97.0264C144.393 89.7277 158.518 81.6558 165.522 77.838C168.201 76.3782 171.361 76.0349 174.287 76.9204C190.036 81.6943 202.423 87.6231 209.16 91.1842C212.356 92.8717 214.55 95.958 215.108 99.4807C215.169 99.8432 215.208 100.212 215.233 100.588C215.237 100.671 215.246 100.748 215.246 100.831C215.503 104.925 215.676 109.205 215.792 113.436C215.891 116.718 215.955 119.981 215.997 123.103C216.048 126.731 216.071 130.18 216.061 133.263Z" fill="#F9AABB"/>
<mask id="mask0_145_3" style="mask-type:luminance" maskUnits="userSpaceOnUse" x="21" y="99" width="80" height="90">
<path d="M21.832 99.378H100.199V188.079H21.832V99.378Z" fill="white"/>
</mask>
<g mask="url(#mask0_145_3)">
<path d="M99.4903 128.647C99.4871 128.73 99.4871 128.807 99.4775 128.89C99.439 129.725 99.4005 130.568 99.3523 131.422C99.2529 133.395 99.1278 135.403 98.9898 137.412C98.8936 138.769 98.7941 140.129 98.6882 141.483C98.592 142.708 98.4957 143.927 98.3963 145.14C98.3129 146.112 98.2295 147.072 98.1461 148.028C98.0562 149.067 97.9632 150.1 97.8669 151.114C97.7194 152.712 97.5686 154.277 97.4178 155.788C97.2285 157.691 97.036 159.513 96.8531 161.22C96.6286 163.34 96.4104 165.288 96.2179 167.007C96.112 167.925 96.0094 168.775 95.9195 169.552C95.5731 172.433 94.1614 175.044 91.9927 176.902H91.9895C91.489 177.335 90.95 177.72 90.3725 178.06C87.5814 179.715 84.3346 181.448 80.9852 183.126C78.5502 184.348 76.0638 185.545 73.6577 186.674C73.4459 186.773 73.2342 186.876 73.0256 186.972C72.0247 187.434 70.8697 187.421 69.888 186.921L69.272 186.613L26.1631 164.845L23.3463 163.424C22.4832 162.988 21.9667 162.073 22.0341 161.108L24.745 122.958C24.8637 121.236 25.2584 119.561 25.8775 117.995C26.4486 116.539 27.2186 115.175 28.1714 113.943C28.3639 113.687 28.5692 113.433 28.781 113.189C29.1307 112.792 29.5028 112.403 29.8878 112.034C31.0332 110.947 32.3485 110.01 33.7987 109.275C34.5558 108.89 35.3161 108.509 36.0733 108.136C38.1041 107.132 40.1285 106.176 42.063 105.291C42.7977 104.951 43.5228 104.627 44.2286 104.306C44.6393 104.12 45.0499 103.943 45.4477 103.764C48.1426 102.564 50.5616 101.54 52.4737 100.748C55.2906 99.5834 58.4731 99.5737 61.2867 100.767C61.4215 100.822 61.553 100.879 61.6878 100.937C64.9762 102.339 68.0978 103.777 71.0397 105.214C71.3927 105.387 71.7456 105.557 72.092 105.727C74.0459 106.696 75.913 107.665 77.6872 108.615C78.0786 108.82 78.4572 109.028 78.8357 109.234C83.8534 111.951 88.0979 114.521 91.4184 116.658C92.1723 117.145 92.8814 117.61 93.539 118.04C93.8534 118.252 94.1582 118.454 94.4502 118.65C95.1239 119.099 95.7399 119.619 96.2853 120.193C96.4553 120.366 96.6157 120.546 96.7697 120.729C96.805 120.761 96.8307 120.799 96.8596 120.831C97.4531 121.537 97.9504 122.314 98.3546 123.135C99.0155 124.498 99.4037 125.99 99.4807 127.537C99.5031 127.899 99.5095 128.271 99.4903 128.647Z" fill="#56091F"/>
</g>
<path d="M70.2602 146.452L70.2024 148.615L70.1318 151.666L70.1126 152.429L69.9201 160.321L69.8335 163.809L69.7629 166.667L69.7372 167.819L69.5511 175.237L69.272 186.613L26.1631 164.845L26.7181 155.824L27.1576 148.64L27.1993 148.008L27.2763 146.741L27.6196 141.098L28.0944 133.453L28.1041 133.276L28.2228 131.322L28.6174 124.928C28.7072 123.443 30.276 122.516 31.6235 123.157L65.9836 139.5C68.6592 140.771 70.3307 143.491 70.2602 146.452ZM170.902 96.7408C180.803 95.4928 190.655 93.9689 200.533 92.6215C201.708 92.4611 201.602 90.6869 200.395 90.7671C190.318 91.4376 180.312 91.9317 170.273 93.138C165.349 93.7315 160.427 94.3828 155.519 95.1271C153.276 95.4672 151.034 95.8297 148.798 96.1987C146.375 96.5997 144.425 96.8531 142.57 98.4957C142.233 98.7877 142.375 99.439 142.766 99.609C144.755 100.472 146.375 100.27 148.499 99.9362C151.03 99.5352 153.562 99.1278 156.099 98.7524C161.027 98.0306 165.962 97.3664 170.902 96.7408ZM164.954 86.4392C167.338 86.112 169.718 85.7623 172.102 85.4736C174.287 85.2073 176.244 84.6266 178.368 84.2159C180.716 83.7668 183.11 83.555 185.487 83.3465C186.164 83.2855 186.116 82.2942 185.435 82.2942C180.803 82.275 176.135 81.7745 171.544 82.2268C169.292 82.445 167.046 82.6888 164.807 83.0193C163 83.2855 160.825 83.2406 159.885 85.034C159.725 85.3356 159.799 85.7078 160.042 85.942C161.396 87.2509 163.257 86.6734 164.954 86.4392ZM207.306 129.221C206.992 123.754 206.469 118.22 205.442 112.837C204.483 107.828 200.392 103.947 195.23 103.619C191.704 103.395 188.005 103.927 184.486 104.2C180.735 104.482 176.988 104.887 173.244 105.32C169.112 105.798 164.945 106.324 160.864 107.132C158.878 107.527 156.885 108.242 154.884 108.489C152.856 108.743 150.992 108.977 148.99 109.449C148.364 109.596 148.599 110.6 149.218 110.546C151.739 110.312 154.306 109.673 156.808 109.535C158.91 109.417 161.002 109.365 163.097 109.163C167.431 108.746 171.775 108.39 176.116 108.05C180.312 107.723 184.515 107.456 188.714 107.222C192.272 107.026 196.218 106.247 199.231 108.64C201.73 110.629 202.121 113.594 202.548 116.555C203.001 119.673 203.353 122.804 203.61 125.949C203.915 129.657 204.078 133.372 204.088 137.091C204.091 139.096 203.992 141.098 203.96 143.103C203.941 144.274 203.982 145.442 203.992 146.613C204.001 147.781 204.281 149.009 204.268 150.151C204.252 151.149 205.808 151.268 206 150.302C206.35 148.56 206.94 146.94 207.178 145.137C207.412 143.395 207.482 141.662 207.518 139.914C207.591 136.343 207.514 132.776 207.306 129.221ZM196.01 137.232C195.843 134.575 195.705 131.9 195.442 129.253C194.919 123.911 191.127 119.301 185.699 118.416C181.502 117.732 176.69 118.871 172.513 119.397C167.264 120.065 162.054 120.931 156.879 121.996C156.067 122.163 156.106 123.404 156.982 123.324C165.208 122.529 173.437 121.768 181.685 121.303C187.187 120.995 191.807 123.777 192.256 129.648C192.763 136.356 193.081 143.084 193.527 149.798C193.645 151.608 193.636 153.51 194.127 155.269C194.297 155.875 194.948 157.123 194.961 157.386C195.015 158.271 196.398 158.214 196.34 157.328C196.356 157.562 196.369 156.94 196.401 156.828C196.401 156.834 196.7 156.067 196.796 155.654C197.171 154.033 196.959 152.314 196.857 150.674C196.574 146.196 196.295 141.711 196.01 137.232ZM169.186 131.364C168.647 131.492 168.701 132.253 169.279 132.233C176.776 132.035 176.177 141.675 176.132 146.709C176.103 149.725 176.106 152.74 176.026 155.75C175.946 158.576 175.548 161.387 177.072 163.892C177.158 164.033 177.383 164.04 177.489 163.915C179.779 161.13 179.359 157.072 179.426 153.648C179.507 149.696 179.491 145.708 179.025 141.781C178.442 136.821 175.336 129.914 169.186 131.364Z" fill="#DD7B4A"/>
<path d="M70.135 151.666L69.9233 160.321C67.8283 159.471 65.929 158.105 63.9399 156.985C62.246 156.035 60.4686 155.256 58.6881 154.482C54.4051 152.631 50.1125 150.803 45.8199 148.98C39.7339 146.407 33.6382 143.841 27.626 141.098L28.1073 133.276C30.9498 134.733 34.0906 135.609 37.0229 136.908C39.0088 137.787 40.9017 138.868 42.833 139.863C51.6396 144.405 61.2964 147.27 70.135 151.666ZM35.9418 151.557C33.0704 150.28 29.9969 149.414 27.2025 148.008L26.7213 155.824C32.6758 158.541 38.7137 161.079 44.7355 163.629C49.0345 165.448 53.3271 167.274 57.6069 169.134C59.3843 169.904 61.168 170.681 62.8556 171.63C65.0724 172.872 67.1706 174.428 69.5575 175.237L69.7693 166.667C60.7381 162.07 50.799 159.173 41.7551 154.511C39.8205 153.517 37.9309 152.436 35.9418 151.557Z" fill="#DB5275"/>
<mask id="mask1_145_3" style="mask-type:luminance" maskUnits="userSpaceOnUse" x="25" y="75" width="193" height="113">
<path d="M25.4605 75.5602H217.097V187.258H25.4605V75.5602Z" fill="white"/>
</mask>
<g mask="url(#mask1_145_3)">
<path d="M216.905 133.318L216.85 141.656C216.818 144.64 215.651 147.585 213.633 149.779C213.126 150.325 212.58 150.835 211.984 151.281L210.29 152.526L208.573 153.732L206.844 154.909C204.528 156.465 202.186 157.967 199.818 159.436C195.086 162.372 190.286 165.182 185.439 167.912C184.823 168.252 184.258 168.592 183.578 168.936C182.917 169.266 182.224 169.532 181.515 169.734C180.094 170.139 178.599 170.28 177.126 170.148C176.398 170.084 175.647 169.94 174.961 169.754L172.939 169.202C171.598 168.81 170.261 168.416 168.929 167.996C163.613 166.305 158.387 164.386 153.206 162.359C150.613 161.345 148.034 160.302 145.467 159.234L141.624 157.614C140.982 157.338 140.353 157.081 139.683 156.751C139.041 156.407 138.409 156.035 137.835 155.58C136.667 154.704 135.689 153.591 134.909 152.359C134.158 151.111 133.597 149.738 133.34 148.303C133.19 147.585 133.154 146.853 133.106 146.173L132.965 144.088L132.689 139.927C132.057 128.82 131.691 117.707 131.534 106.587C131.521 105.907 131.521 105.172 131.598 104.46C131.672 103.751 131.823 103.042 132.031 102.358C132.432 100.985 133.103 99.6924 133.976 98.5599C134.405 97.9889 134.899 97.4659 135.429 96.9879C135.961 96.5163 136.5 96.0928 137.039 95.6437C138.124 94.771 139.231 93.924 140.353 93.1027C144.848 89.8175 149.545 86.8339 154.309 83.9882C156.693 82.5637 159.096 81.1778 161.525 79.8239C162.734 79.147 163.95 78.4796 165.169 77.8155C166.388 77.1322 167.739 76.6349 169.128 76.4232C170.517 76.205 171.942 76.2371 173.318 76.5258C174.011 76.6638 174.672 76.898 175.333 77.1001L177.319 77.7289C179.956 78.5951 182.574 79.4999 185.176 80.4623C190.37 82.3937 195.496 84.5239 200.514 86.8692C203.023 88.0402 205.513 89.2593 207.967 90.5426C208.576 90.8666 209.196 91.1746 209.792 91.5339C210.386 91.8964 210.934 92.3167 211.454 92.7819C212.474 93.7123 213.344 94.8223 213.966 96.0575C214.682 97.4659 214.909 98.6466 214.993 99.4229C215.044 100.206 215.022 100.597 214.967 100.6C214.906 100.607 214.81 100.225 214.669 99.4807C214.492 98.7428 214.22 97.6328 213.527 96.2917C212.924 95.1175 212.096 94.062 211.114 93.1765C210.617 92.7402 210.091 92.3392 209.526 91.9959C208.971 91.6622 208.342 91.3543 207.733 91.0334C205.282 89.7694 202.798 88.5663 200.29 87.4146C195.278 85.1078 190.158 83.0161 184.973 81.12C182.378 80.1736 179.757 79.2881 177.129 78.4443L175.15 77.8284L174.159 77.5204C173.838 77.4306 173.527 77.3439 173.206 77.2798C171.919 77.0135 170.591 76.9846 169.292 77.1963C167.989 77.4081 166.757 77.8572 165.596 78.5117C164.386 79.1822 163.174 79.8528 161.967 80.5361C159.561 81.9028 157.168 83.2984 154.8 84.7325C150.062 87.6006 145.403 90.6003 140.963 93.8855C139.853 94.7068 138.765 95.5538 137.697 96.42C137.181 96.8596 136.619 97.3023 136.135 97.7418C135.653 98.1782 135.204 98.6562 134.813 99.1791C134.024 100.215 133.424 101.396 133.058 102.647C132.875 103.273 132.737 103.914 132.676 104.563C132.609 105.217 132.609 105.836 132.631 106.558C132.849 117.658 133.286 128.769 133.979 139.859L134.277 144.011L134.428 146.09C134.457 146.43 134.47 146.802 134.511 147.11L134.566 147.591L134.652 148.069C134.887 149.343 135.4 150.556 136.074 151.656C136.776 152.744 137.649 153.725 138.695 154.492C139.202 154.893 139.766 155.214 140.341 155.512C140.905 155.788 141.569 156.055 142.201 156.324L146.045 157.922C148.615 158.971 151.191 160.001 153.777 161.002C158.952 162.997 164.165 164.884 169.442 166.536C170.764 166.95 172.089 167.335 173.414 167.716L175.41 168.252C176.051 168.422 176.671 168.531 177.319 168.583C178.599 168.689 179.901 168.551 181.133 168.188C181.752 168.005 182.352 167.771 182.927 167.476L183.353 167.251L183.809 166.995L184.71 166.481C189.532 163.741 194.306 160.928 199.003 157.996C201.348 156.526 203.674 155.034 205.965 153.488C207.104 152.712 208.24 151.929 209.356 151.124C209.908 150.719 210.482 150.312 211.008 149.908C211.522 149.523 211.99 149.077 212.42 148.605C214.149 146.699 215.15 144.162 215.16 141.582L215.208 133.276C215.195 130.511 215.176 127.742 215.163 124.973C215.163 123.594 215.14 122.208 215.102 120.825L215.015 116.677C214.993 115.336 214.967 114.085 214.948 112.91C214.916 111.739 214.887 110.649 214.861 109.648C214.82 107.636 214.813 105.961 214.832 104.62C214.874 101.935 215.031 100.591 215.233 100.581C215.448 100.575 215.708 101.903 215.984 104.579C216.122 105.916 216.26 107.591 216.392 109.599C216.453 110.607 216.517 111.694 216.591 112.869C216.648 114.043 216.668 115.3 216.7 116.641L216.786 120.809C216.818 122.198 216.847 123.584 216.847 124.973L216.905 133.318ZM66.9428 185.105C54.0458 177.614 40.4493 171.188 26.8914 165.044C25.9193 164.617 25.9321 164.588 26.8721 165.076C33.5228 168.432 40.0643 172.048 46.6572 175.567C53.2501 179.093 59.9136 182.474 66.7792 185.435C67.6037 185.779 68.2229 186.035 68.6528 186.215C69.0699 186.388 69.272 186.485 69.272 186.485C69.272 186.485 69.0699 186.379 68.6849 186.151C68.2871 185.91 67.7096 185.567 66.9428 185.105Z" fill="#56091F"/>
</g>
<path d="M84.6137 81.8033C82.4931 77.2092 82.8717 71.5499 85.5762 67.2733C88.2807 62.9967 93.231 60.2376 98.2904 60.1863L116.539 58.0368C121.239 59.0538 125.881 60.7766 129.635 63.7795C133.392 66.7856 136.189 71.2034 136.523 76.0029C136.853 80.8024 134.393 85.8778 130.052 87.9567C126.719 89.5544 122.792 89.2978 119.288 90.4816C115.904 91.6301 112.994 94.0973 109.461 94.6683C106.086 95.2137 102.657 93.9048 99.7887 92.0408C97.2798 90.4142 95.002 88.3192 92.1659 87.3792C90.9917 86.9878 89.7437 86.805 88.6304 86.2788C86.7793 85.4062 85.4703 83.6609 84.6137 81.8033ZM169.564 137.816C169.558 137.444 169.532 137.071 169.491 136.709C169.096 133.157 167.049 129.978 163.937 128.143C157.373 124.274 145.268 117.774 129.76 112.275C126.879 111.258 123.706 111.451 120.96 112.785C113.789 116.279 99.3074 123.687 90.4688 130.584C87.7931 132.67 86.1922 135.843 86.0799 139.234C86.0767 139.404 86.0703 139.577 86.0671 139.757C85.9708 142.817 85.8617 147.007 85.7912 151.897C85.7462 155.012 85.7142 158.413 85.7142 161.993C85.7142 165.714 85.743 169.625 85.8136 173.597C85.8553 175.833 85.9099 178.082 85.9837 180.334C86.1216 184.585 88.6176 188.4 92.445 190.245C100.629 194.188 115.326 200.96 126.568 204.415C129.375 205.278 132.4 205.002 135.021 203.687C141.579 200.386 154.8 193.53 163.421 187.688C166.379 185.686 168.236 182.429 168.445 178.862C168.573 176.613 168.727 173.754 168.881 170.492C169.025 167.412 169.17 163.969 169.288 160.344C169.388 157.222 169.475 153.966 169.532 150.681C169.609 146.362 169.629 141.993 169.564 137.816ZM68.9095 163.421C69.2143 163.552 69.519 163.68 69.8334 163.809L69.7629 166.667L69.7372 167.819C68.8966 167.434 68.0753 166.972 67.2604 166.61C65.2329 165.705 63.1924 164.832 61.1456 163.976C57.0455 162.262 52.9133 160.629 48.7939 158.958C44.5847 157.251 40.3017 155.621 36.192 153.68C33.0319 152.185 29.9359 150.713 27.1576 148.64L27.1993 148.008L27.2763 146.741C31.0685 147.643 34.6456 149.202 38.242 150.703C42.3069 152.397 46.3589 154.104 50.4429 155.747C54.7035 157.457 58.9672 159.167 63.1956 160.947C65.1077 161.752 67.0166 162.57 68.9095 163.421ZM69.0282 148.149C67.084 147.302 65.1398 146.452 63.202 145.609C59.0506 143.799 54.9056 141.993 50.7477 140.196C46.6123 138.406 42.4769 136.622 38.3383 134.839C35.2391 133.497 31.6941 131.566 28.2228 131.322L28.104 133.276L28.0944 133.453C30.7765 135.663 34.5654 136.889 37.6325 138.23C41.7839 140.045 45.929 141.858 50.0804 143.677C54.2351 145.493 58.3929 147.286 62.554 149.096C64.4885 149.93 66.4199 150.771 68.3545 151.611C68.9576 151.874 69.5351 152.169 70.1126 152.429L70.1318 151.666L70.2024 148.615C69.7949 148.457 69.4003 148.31 69.0282 148.149Z" fill="#FAEFD6"/>
<path d="M169.532 150.681C160.662 155.471 151.788 160.261 142.917 165.054C138.037 167.688 132.763 170.405 127.251 169.786C121.646 169.151 117.046 165.204 111.845 163.01C109.227 161.906 106.443 161.245 103.764 160.286C101.187 159.359 98.7107 158.159 96.2436 156.962C92.7626 155.275 89.2785 153.584 85.7912 151.897C85.8618 147.007 85.9708 142.817 86.0671 139.757C97.7579 145.714 109.824 150.928 122.176 155.352C124.219 156.087 126.305 156.802 128.477 156.908C134.28 157.184 139.253 153.148 144.348 150.35C149.988 147.242 156.346 145.493 161.74 141.974C164.345 140.276 166.77 138.143 169.491 136.709C169.532 137.071 169.558 137.444 169.564 137.816C169.629 141.993 169.609 146.362 169.532 150.681ZM136.565 179.362C130.581 181.069 124.274 179.317 118.377 177.254C107.123 173.331 96.1762 168.288 85.7142 162.189C85.7142 166.366 85.743 170.748 85.8136 175.208C94.6555 178.294 103.395 181.772 111.993 185.628C119.891 189.173 128.419 193.116 136.635 190.639C139.869 189.667 142.801 187.749 145.692 185.853C148.348 184.107 151.002 182.365 153.658 180.617C158.599 177.37 163.587 174.098 168.881 171.72C169.025 168.265 169.17 164.406 169.288 160.341C161.172 165.297 153.061 170.254 144.948 175.211C142.256 176.857 139.532 178.512 136.565 179.362Z" fill="#DD7B4A"/>
<mask id="mask2_145_3" style="mask-type:luminance" maskUnits="userSpaceOnUse" x="84" y="110" width="87" height="96">
<path d="M84.5945 110.876H170.01V205.663H84.5945V110.876Z" fill="white"/>
</mask>
<g mask="url(#mask2_145_3)">
<path d="M169.975 159.747C169.953 161.762 169.869 164.107 169.763 166.792L169.59 170.954L169.375 175.118C169.298 176.513 169.247 177.87 169.141 179.301C169.013 180.777 168.599 182.218 167.957 183.549C167.306 184.874 166.417 186.08 165.339 187.088C164.813 187.595 164.197 188.047 163.61 188.442C163.029 188.827 162.449 189.215 161.858 189.593C159.51 191.101 157.126 192.538 154.714 193.934C149.892 196.716 144.989 199.343 140.045 201.897L136.33 203.793L135.4 204.258C135.079 204.415 134.739 204.576 134.402 204.71C133.719 204.983 133.01 205.195 132.291 205.339C130.851 205.631 129.356 205.66 127.906 205.41C127.19 205.298 126.449 205.086 125.807 204.864C125.14 204.65 124.473 204.444 123.815 204.213C118.528 202.429 113.369 200.328 108.255 198.127C103.148 195.917 98.0979 193.591 93.0899 191.172L92.1499 190.713C91.8258 190.537 91.4986 190.386 91.1938 190.184C90.565 189.818 89.9939 189.362 89.4421 188.891C88.3706 187.912 87.4466 186.751 86.7921 185.452C86.1184 184.162 85.7046 182.744 85.5409 181.303C85.5024 180.947 85.4832 180.575 85.4671 180.222L85.4447 179.179L85.3966 177.091C85.3709 175.702 85.3228 174.309 85.3196 172.92L85.2971 168.746C85.2907 165.968 85.2426 163.186 85.2779 160.405L85.3741 152.067L85.5891 143.732L85.7013 139.564C85.7142 138.149 85.9901 136.706 86.5034 135.374C87.0263 134.04 87.7771 132.798 88.7395 131.739C89.224 131.213 89.7501 130.726 90.3148 130.289L91.9895 129.035C96.5131 125.778 101.303 122.933 106.151 120.222C111.011 117.527 115.952 114.989 120.953 112.573C123.504 111.364 126.5 111.12 129.198 111.922C131.842 112.83 134.425 113.821 137.001 114.861C142.15 116.924 147.209 119.221 152.173 121.694C154.653 122.936 157.107 124.226 159.532 125.567C160.745 126.24 161.951 126.924 163.148 127.626C163.745 127.979 164.354 128.316 164.909 128.736C165.464 129.15 165.994 129.606 166.468 130.116C168.39 132.131 169.507 134.871 169.571 137.646C169.58 140.418 169.548 143.186 169.539 145.958C169.507 152.259 169.109 152.259 169.109 145.952C169.106 143.193 169.106 140.43 169.099 137.668C169.022 135.012 167.947 132.397 166.106 130.479C165.65 129.991 165.147 129.561 164.614 129.166C164.088 128.765 163.501 128.448 162.898 128.095C161.707 127.402 160.501 126.728 159.288 126.064C156.869 124.736 154.415 123.459 151.938 122.233C146.982 119.792 141.926 117.537 136.78 115.503C135.496 114.989 134.203 114.498 132.91 114.011C132.262 113.764 131.611 113.539 130.96 113.298C130.315 113.074 129.644 112.808 129.032 112.625C126.5 111.88 123.696 112.111 121.316 113.254C116.35 115.682 111.425 118.246 106.593 120.96C101.775 123.69 97.0232 126.548 92.5605 129.798L90.9147 131.046C90.3918 131.454 89.9137 131.9 89.4742 132.391C88.5984 133.369 87.9118 134.511 87.437 135.737C86.975 136.972 86.7312 138.255 86.7216 139.606L86.6349 143.773L86.4617 152.105L86.4072 160.44C86.3847 163.218 86.4489 166 86.4617 168.775L86.5034 172.943C86.5162 174.332 86.5708 175.718 86.6029 177.11L86.6574 179.192L86.6863 180.235C86.7087 180.569 86.7184 180.889 86.7601 181.217C86.9141 182.51 87.3022 183.783 87.915 184.935C88.5117 186.096 89.3523 187.123 90.318 187.996C90.8185 188.413 91.3318 188.82 91.8996 189.141C92.1723 189.321 92.4739 189.455 92.7594 189.609L93.6995 190.062C98.7075 192.452 103.757 194.755 108.852 196.94C113.95 199.109 119.096 201.181 124.335 202.933C124.986 203.158 125.647 203.357 126.301 203.565L126.792 203.722L127.261 203.857C127.575 203.934 127.893 204.001 128.214 204.053C129.494 204.258 130.815 204.223 132.086 203.953C132.721 203.819 133.34 203.626 133.943 203.379C134.248 203.254 134.531 203.122 134.835 202.965L135.763 202.497L139.465 200.601C144.38 198.05 149.26 195.419 154.043 192.654C156.433 191.268 158.798 189.84 161.114 188.345L162.84 187.206C163.395 186.828 163.908 186.452 164.377 185.994C165.32 185.105 166.099 184.043 166.664 182.879C167.222 181.711 167.585 180.44 167.697 179.151C167.787 177.816 167.848 176.398 167.925 175.031L168.14 170.886L168.316 166.741C168.422 164.065 168.554 161.72 168.653 159.715C168.746 157.71 168.849 156.035 168.948 154.701C169.154 152.025 169.372 150.687 169.548 150.694C169.731 150.697 169.879 152.041 169.949 154.726C169.972 156.058 169.985 157.739 169.975 159.747Z" fill="#56091F"/>
</g>
<path d="M152.14 117.283C152.14 117.312 152.14 117.338 152.14 117.37C152.14 117.376 152.14 117.376 152.14 117.379C152.14 117.392 152.14 117.411 152.14 117.424C152.14 117.431 152.14 117.44 152.14 117.444C152.128 119.359 151.082 121.014 149.526 121.9C150.424 123.436 150.508 125.394 149.571 127.052C148.65 128.701 146.959 129.641 145.198 129.68C145.268 131.422 144.454 133.161 142.894 134.2C141.348 135.227 139.449 135.31 137.883 134.585C137.19 136.164 135.727 137.367 133.892 137.633C133.626 137.675 133.363 137.687 133.106 137.687C131.579 137.678 130.174 136.988 129.224 135.875C127.938 137.017 126.112 137.495 124.344 136.982C122.564 136.462 121.274 135.066 120.812 133.401C119.147 133.895 117.277 133.539 115.888 132.301C115.888 132.301 115.888 132.301 115.888 132.294C114.482 131.037 113.934 129.189 114.267 127.463C112.525 127.155 110.989 125.958 110.328 124.178C109.664 122.387 110.052 120.459 111.184 119.083C109.811 117.976 109.035 116.199 109.301 114.322C109.555 112.532 110.7 111.082 112.221 110.373C111.483 108.89 111.467 107.078 112.336 105.525C113.209 103.979 114.755 103.051 116.401 102.91C116.212 101.248 116.837 99.5256 118.207 98.3706C119.635 97.1675 121.524 96.8756 123.17 97.4306C123.716 95.7174 125.137 94.3411 127.02 93.9433C128.961 93.5326 130.88 94.2673 132.063 95.695C133.469 94.5143 135.464 94.1197 137.296 94.8512C139.041 95.5474 140.196 97.0905 140.479 98.8198C142.156 98.5182 143.943 99.0444 145.188 100.385C146.398 101.685 146.805 103.446 146.436 105.057C148.05 105.384 149.481 106.471 150.174 108.104C150.86 109.728 150.658 111.515 149.773 112.901C151.21 113.828 152.153 115.448 152.14 117.283Z" fill="#DB5275"/>
<path d="M109.096 95.4255C106.484 95.7238 103.911 95.0245 101.659 93.9272C100.527 93.3786 99.4486 92.7113 98.4412 92.0055C97.4306 91.3029 96.4649 90.5746 95.4768 89.9137C94.4951 89.2529 93.4845 88.669 92.429 88.2519C91.3927 87.8348 90.1993 87.6584 88.9577 87.2092C88.3385 86.9846 87.7193 86.6574 87.1771 86.2692C86.6349 85.8746 86.1505 85.4158 85.7174 84.9185C84.8672 83.9176 84.2159 82.7947 83.7379 81.6141C82.753 79.2592 82.3744 76.683 82.5733 74.1517C82.7754 71.6301 83.5486 69.1373 84.9025 66.9749C86.2564 64.8126 88.146 63.0224 90.318 61.7391C92.737 60.3211 94.8576 59.9393 96.2243 59.8655C96.9173 59.843 97.437 59.8751 97.7707 59.9585C98.1108 60.0259 98.284 60.1157 98.2904 60.2024C98.2936 60.2922 98.1332 60.3884 97.8092 60.4911C97.4787 60.5809 96.9975 60.7061 96.3719 60.8568C95.1303 61.1937 93.2567 61.707 91.0655 62.9999C89.0796 64.1741 87.36 65.8136 86.1409 67.7642C84.9217 69.7148 84.2063 71.9862 84.0202 74.2961C83.8374 76.6028 84.1838 78.9577 85.0725 81.0911C85.9387 83.2118 87.3889 85.1752 89.471 85.9099C90.5169 86.3013 91.7488 86.4938 92.9616 86.9814C94.1518 87.4562 95.2426 88.1043 96.2628 88.8005C98.3065 90.2025 100.138 91.7424 102.262 92.7659C104.357 93.7989 106.686 94.4341 108.974 94.1807C111.268 93.9465 113.388 92.7594 115.538 91.643C116.619 91.0815 117.729 90.5265 118.913 90.1159C120.097 89.6924 121.325 89.4582 122.532 89.2593C124.938 88.8743 127.367 88.6818 129.526 87.7546C131.675 86.8435 133.453 85.1303 134.601 83.0706C135.759 81.0077 136.34 78.6176 136.241 76.2499C136.138 73.8726 135.397 71.537 134.223 69.4549C133.048 67.3663 131.457 65.5152 129.599 63.9913C127.742 62.4642 125.631 61.2515 123.417 60.2986C121.2 59.349 118.887 58.6464 116.529 58.1234C111.216 58.7202 105.916 59.3105 100.62 59.9072C97.5108 60.2601 97.4819 59.8559 100.588 59.4773C105.862 58.8292 111.146 58.1876 116.475 57.5363L116.555 57.5267L116.638 57.5427C119.028 58.0529 121.393 58.733 123.664 59.6826C125.936 60.6291 128.114 61.8482 130.052 63.4106C131.993 64.9698 133.671 66.8691 134.925 69.041C136.176 71.2066 136.991 73.6609 137.129 76.1986C137.264 78.7427 136.67 81.3061 135.451 83.5422C134.242 85.7783 132.314 87.6904 129.94 88.7235C127.562 89.7598 125.05 89.9683 122.702 90.3757C121.524 90.5811 120.366 90.8153 119.285 91.2163C118.194 91.6045 117.139 92.1435 116.074 92.7081C115.005 93.2728 113.927 93.8695 112.776 94.3732C111.63 94.8737 110.392 95.2811 109.096 95.4255ZM152.182 114.8C151.807 113.998 151.233 113.295 150.54 112.743C151.306 111.252 151.393 109.426 150.722 107.88C150.081 106.333 148.714 105.118 147.11 104.63C147.325 102.942 146.76 101.162 145.567 99.9395C144.399 98.6818 142.628 98.0402 140.921 98.191C140.713 97.3985 140.334 96.651 139.811 96.0126C139.176 95.233 138.323 94.6298 137.383 94.2801C136.443 93.9272 135.4 93.831 134.409 94.0107C133.591 94.1518 132.811 94.4887 132.128 94.9667C131.524 94.37 130.806 93.9016 130.007 93.616C129.048 93.2728 127.995 93.199 126.998 93.4011C126.003 93.5968 125.06 94.0652 124.306 94.7453C123.674 95.3132 123.183 96.0254 122.859 96.8114C121.168 96.4008 119.298 96.8114 117.97 97.9247C116.606 99.0187 115.836 100.77 115.9 102.5C114.245 102.785 112.74 103.837 111.938 105.31C111.104 106.786 111.03 108.634 111.675 110.18C110.148 111.043 109.067 112.647 108.887 114.386C108.669 116.144 109.384 117.954 110.681 119.125C109.93 120.174 109.558 121.483 109.664 122.76C109.763 123.809 110.1 124.255 110.154 124.226C110.251 124.19 110.084 123.709 110.007 122.734C109.914 121.422 110.357 120.087 111.2 119.086L111.213 119.073L111.2 119.06C109.837 117.966 109.109 116.16 109.346 114.444C109.548 112.721 110.7 111.165 112.269 110.459L112.365 110.418L112.32 110.321C111.585 108.842 111.64 107.017 112.464 105.602C113.266 104.178 114.8 103.212 116.417 103.103L116.619 103.09L116.597 102.888C116.414 101.226 117.139 99.5192 118.441 98.5022C119.725 97.4627 121.54 97.1643 123.077 97.7097L123.363 97.8092L123.453 97.5172C123.985 95.8554 125.467 94.5625 127.168 94.2641C128.862 93.9272 130.69 94.6106 131.755 95.942L132.002 96.2564L132.314 95.9933C133.607 94.9154 135.474 94.6074 137.02 95.2234C138.583 95.8008 139.754 97.2606 139.991 98.8936L140.065 99.3844L140.559 99.2978C142.083 99.0219 143.716 99.5577 144.755 100.693C145.823 101.803 146.257 103.452 145.897 104.935L145.766 105.483L146.324 105.596C147.797 105.888 149.077 106.94 149.644 108.319C150.238 109.692 150.09 111.335 149.279 112.583L148.961 113.071L149.452 113.392C150.167 113.86 150.745 114.524 151.114 115.297C151.48 116.077 151.598 116.917 151.525 117.803C151.383 119.285 150.713 120.26 150.241 120.857C149.757 121.463 149.439 121.752 149.516 121.89C149.535 121.922 149.587 121.941 149.661 121.941C149.686 122.092 149.782 122.359 149.93 122.76C150.479 124.3 150.232 126.086 149.288 127.402C148.371 128.743 146.783 129.561 145.188 129.564H145.076L145.082 129.673C145.147 131.406 144.248 133.113 142.808 134.024C141.387 134.97 139.49 135.079 137.983 134.341L137.745 134.226L137.633 134.476C136.956 135.99 135.474 137.091 133.85 137.286C132.23 137.514 130.543 136.844 129.529 135.596L129.269 135.272L128.948 135.557C128.865 135.631 128.778 135.692 128.692 135.756C128.672 135.74 128.653 135.727 128.637 135.714C128.797 135.544 128.948 135.371 129.086 135.195C130.838 132.91 130.565 129.766 128.489 128.169C126.77 126.853 124.348 127.014 122.573 128.4C122.541 128.297 122.513 128.198 122.48 128.104C121.492 125.403 118.698 123.937 116.24 124.838C115.249 125.201 114.466 125.897 113.947 126.77C113.488 126.642 113.048 126.443 112.647 126.176C111.845 125.644 111.37 125.076 111.03 124.701C110.693 124.312 110.478 124.107 110.337 124.158C110.209 124.203 110.145 124.524 110.334 125.089C110.52 125.644 110.992 126.475 112.006 127.152C112.455 127.45 112.952 127.678 113.465 127.838C113.132 128.926 113.138 130.161 113.574 131.358C113.613 131.454 113.651 131.547 113.693 131.643C111.441 131.73 109.49 133.167 109.025 135.288C108.467 137.848 110.286 140.421 113.1 141.043C113.315 141.088 113.542 141.123 113.773 141.146C113.295 143.254 114.097 145.426 115.913 146.462C118.188 147.761 121.188 146.789 122.615 144.287C122.769 144.017 122.904 143.722 123.026 143.411C123.321 143.565 123.613 143.709 123.908 143.815C126.609 144.806 129.529 143.613 130.43 141.152C130.905 139.853 130.719 138.467 130.045 137.296C131.204 138.037 132.622 138.368 133.982 138.149C135.73 137.902 137.299 136.76 138.121 135.214C139.786 135.804 141.723 135.576 143.173 134.572C144.665 133.584 145.583 131.839 145.618 130.068C147.238 129.898 148.765 129.003 149.654 127.649C150.649 126.199 150.87 124.274 150.254 122.644C150.113 122.275 149.962 122.041 149.853 121.919C150.071 121.868 150.392 121.73 150.793 121.441C151.156 121.175 151.573 120.777 151.938 120.183C152.304 119.599 152.612 118.826 152.696 117.899C152.785 116.879 152.644 115.766 152.182 114.8ZM139.968 120.831C140.629 120.389 141.207 119.821 141.666 119.141C142.118 118.464 142.448 117.668 142.554 116.821C142.667 115.971 142.535 115.079 142.182 114.299C141.829 113.52 141.252 112.846 140.543 112.403C140.373 112.298 140.225 112.24 140.132 112.198C140.042 112.156 140.004 112.124 140.004 112.124C140.004 112.124 140.042 112.156 140.097 112.24C140.158 112.317 140.228 112.452 140.334 112.612C140.767 113.276 141.088 113.959 141.313 114.659C141.537 115.352 141.659 116.067 141.656 116.779C141.643 118.191 141.114 119.712 139.949 120.812C139.795 120.969 139.779 120.95 139.968 120.831ZM138.165 128.582C137.107 129.426 135.689 129.994 134.162 129.821C133.943 129.802 133.95 129.779 134.152 129.85C134.883 130.065 135.657 130.142 136.436 130.058C137.216 129.978 138.002 129.737 138.698 129.308C139.394 128.874 139.988 128.265 140.376 127.546C140.771 126.828 140.963 126.013 140.931 125.214C140.921 125.021 140.896 124.874 140.876 124.781C140.864 124.685 140.867 124.64 140.867 124.64C140.88 124.64 140.809 124.822 140.642 125.159C140.331 125.856 139.978 126.491 139.571 127.062C139.16 127.642 138.698 128.149 138.165 128.582ZM135.06 103.469C135.034 103.388 135.002 103.286 134.96 103.17C134.588 102.249 133.831 101.463 132.92 100.982C132.006 100.491 130.921 100.299 129.882 100.453C128.846 100.607 127.893 101.069 127.123 101.707C126.353 102.346 125.756 103.161 125.381 104.04C125.278 104.29 125.262 104.28 125.403 104.052C125.888 103.244 126.59 102.57 127.399 102.105C128.204 101.643 129.109 101.38 129.988 101.345C130.87 101.303 131.733 101.495 132.529 101.836C133.327 102.176 134.075 102.654 134.717 103.327C134.867 103.491 134.996 103.616 135.06 103.712C135.134 103.805 135.163 103.853 135.163 103.853C135.163 103.853 135.14 103.805 135.111 103.69C135.092 103.616 135.076 103.549 135.06 103.469ZM124.441 111.73C123.982 112.423 123.716 113.25 123.677 114.085C123.639 114.915 123.805 115.74 124.123 116.475C124.441 117.216 124.893 117.87 125.438 118.412C125.599 118.563 125.583 118.573 125.461 118.4C125.028 117.784 124.729 117.068 124.585 116.337C124.444 115.602 124.45 114.861 124.572 114.158C124.697 113.459 124.938 112.804 125.262 112.188C125.583 111.572 125.961 110.985 126.462 110.427C126.587 110.292 126.674 110.18 126.741 110.116C126.812 110.045 126.847 110.023 126.847 110.023C126.847 110.023 126.805 110.045 126.715 110.065C126.622 110.084 126.475 110.11 126.298 110.183C125.551 110.478 124.899 111.037 124.441 111.73ZM116.253 111.579C116.629 110.995 117.075 110.453 117.655 109.972C117.8 109.856 117.906 109.76 117.983 109.705C118.06 109.651 118.101 109.632 118.101 109.632C118.101 109.632 118.06 109.648 117.963 109.657C117.867 109.66 117.719 109.664 117.527 109.712C116.741 109.895 116.009 110.389 115.483 111.046C114.954 111.698 114.617 112.519 114.524 113.359C114.428 114.194 114.553 115.034 114.822 115.791C115.098 116.555 115.509 117.238 116.016 117.825C116.167 117.986 116.144 117.999 116.038 117.809C115.647 117.158 115.39 116.423 115.291 115.676C115.188 114.935 115.236 114.181 115.41 113.488C115.58 112.798 115.878 112.163 116.253 111.579ZM144.069 107.646C144.723 108.57 145.236 109.67 145.406 110.928C145.439 111.107 145.416 111.107 145.435 110.928C145.48 110.302 145.477 109.673 145.39 109.035C145.301 108.4 145.127 107.755 144.819 107.158C144.518 106.561 144.081 106.022 143.542 105.621C143 105.223 142.352 104.967 141.688 104.906C141.528 104.893 141.403 104.906 141.322 104.909C141.242 104.915 141.207 104.903 141.207 104.903C141.21 104.887 141.345 104.983 141.589 105.175C142.596 105.939 143.404 106.722 144.069 107.646ZM122.118 101.823C122.044 101.813 121.932 101.794 121.781 101.803C121.162 101.832 120.546 102.057 120.023 102.429C119.5 102.798 119.08 103.318 118.813 103.911C118.271 105.098 118.4 106.494 118.996 107.508C119.086 107.649 119.064 107.655 119.022 107.498C118.855 106.953 118.846 106.359 118.958 105.811C119.08 105.259 119.317 104.749 119.615 104.309C119.914 103.87 120.267 103.491 120.639 103.135C121.014 102.776 121.412 102.432 121.877 102.079C122.095 101.896 122.224 101.807 122.224 101.823C122.224 101.823 122.192 101.832 122.118 101.823ZM122.224 123.36C121.996 123.106 121.884 122.958 121.9 122.955C121.9 122.955 121.913 122.997 121.922 123.084C121.925 123.17 121.925 123.308 121.964 123.485C122.108 124.203 122.471 124.896 122.987 125.458C123.501 126.022 124.168 126.452 124.899 126.696C126.366 127.19 128.002 126.901 129.173 126.099C129.336 125.981 129.346 125.997 129.163 126.077C128.525 126.356 127.819 126.459 127.136 126.401C126.452 126.346 125.798 126.144 125.214 125.856C124.633 125.567 124.11 125.191 123.623 124.774C123.138 124.351 122.679 123.892 122.224 123.36Z" fill="#56091F"/>
<path d="M126.33 64.6169L126.224 65.6499C126.218 65.6949 126.215 65.7366 126.208 65.7815C126.205 65.8264 126.202 65.8745 126.196 65.9162L126.192 65.9611C125.32 73.3304 117.886 78.5823 109.494 77.7097C101.101 76.837 94.9057 70.1735 95.5602 62.7818H95.557L95.695 61.4375C96.2885 55.6756 101.39 51.492 107.084 52.0824C107.925 52.169 108.714 52.4032 109.429 52.7529C111.05 53.5421 112.92 53.741 114.665 53.2951C115.442 53.0962 116.263 53.032 117.097 53.1186C122.792 53.7153 126.924 58.8613 126.33 64.6169Z" fill="#DB5275"/>
<mask id="mask3_145_3" style="mask-type:luminance" maskUnits="userSpaceOnUse" x="73" y="15" width="56" height="93">
<path d="M73.0962 15.9417H128.945V107.591H73.0962V15.9417Z" fill="white"/>
</mask>
<g mask="url(#mask3_145_3)">
<path d="M126.176 66.1312L126.205 66.1536L126.131 66.1633L126.176 66.1312ZM126.337 65.9804L126.144 66.1023L126.173 66.1312L126.282 66.0574C126.305 66.0221 126.324 65.9932 126.337 65.9804ZM126.205 66.1536L126.237 66.1825L126.24 66.1729C126.247 66.1633 126.247 66.1536 126.25 66.1504L126.205 66.1536ZM117.328 33.4233C119.401 29.1082 122.15 25.1172 125.628 21.8127C126.805 20.6931 129.879 18.7778 128.159 16.856C127.328 15.9289 126.218 16.4743 125.374 17.071C124.45 17.7287 123.645 18.5339 122.936 19.4162C120.418 22.5378 118.621 26.2048 117.1 29.8943C115.47 33.8628 114.184 37.9758 113.135 42.1336C112.253 45.621 111.537 49.1565 111.03 52.7176C110.613 52.6117 110.206 52.4673 109.814 52.2845C109.035 51.8963 108.117 51.6043 107.212 51.5145C106.763 51.492 106.321 51.4503 105.875 51.46C105.429 51.492 104.98 51.4824 104.54 51.569C102.769 51.8161 101.059 52.4962 99.6282 53.571C99.4486 53.7025 99.2721 53.8373 99.0957 53.9752L98.6016 54.4244C98.2583 54.7067 97.9856 55.0692 97.6808 55.3932C97.1258 56.0894 96.6093 56.8241 96.2339 57.6358C96.1377 57.8379 96.0382 58.0368 95.9516 58.2422L95.7206 58.871C95.5474 59.2848 95.4768 59.7276 95.3549 60.1543C95.2683 60.5906 95.2073 61.0365 95.1463 61.4696L95.018 62.7305L94.9506 63.3914L94.9827 63.3849C94.9218 65.0789 95.2105 66.7792 95.8137 68.3577C96.4874 70.1383 97.5429 71.7584 98.8486 73.1187C101.454 75.8681 105.044 77.5685 108.74 78.069C112.439 78.5855 116.327 77.9631 119.577 76.0895C121.2 75.1623 122.663 73.9464 123.825 72.4771C124.989 71.0141 125.843 69.2977 126.273 67.4754C126.404 66.8049 126.439 66.3525 126.43 66.1312H126.443L126.42 66.0478C126.42 66.0381 126.417 66.0349 126.417 66.0253L126.407 65.99C126.394 65.9387 126.375 65.9323 126.346 65.9836L126.311 66.0542L126.292 66.0606C126.279 66.0863 126.266 66.1183 126.257 66.1536H126.26L126.247 66.1825C126.163 66.4071 126.064 66.8113 125.945 67.3984C125.509 69.1694 124.656 70.8248 123.504 72.23C122.359 73.6384 120.921 74.803 119.336 75.6821C116.157 77.453 112.384 77.9984 108.823 77.4466C105.259 76.9172 101.848 75.2329 99.4133 72.5893C98.1942 71.274 97.2221 69.734 96.6157 68.0625C95.9997 66.391 95.7655 64.588 95.942 62.8267L95.958 62.6374L96.0799 61.5691C96.1441 61.1616 96.1986 60.7606 96.2853 60.3628C96.404 59.9714 96.4681 59.5671 96.635 59.1918L96.8499 58.6239C96.9269 58.4346 97.0296 58.255 97.1162 58.0721C97.4627 57.3374 97.9407 56.6733 98.4508 56.0445C98.9962 55.4478 99.5641 54.8639 100.238 54.4083C101.54 53.4491 103.09 52.8491 104.688 52.6374C105.082 52.5604 105.49 52.5732 105.887 52.5508C106.289 52.5411 106.69 52.5893 107.091 52.6117C107.88 52.7015 108.611 52.9261 109.343 53.2983C109.837 53.5325 110.357 53.7121 110.886 53.8437C110.822 54.3602 110.758 54.8735 110.7 55.3836C110.594 56.3204 112.06 56.314 112.166 55.3836C112.217 54.9409 112.278 54.5046 112.336 54.065C113.106 54.1164 113.882 54.0618 114.64 53.8918C115.445 53.6833 116.189 53.6191 116.978 53.6929C117.367 53.7538 117.768 53.8084 118.156 53.8854C118.538 54.0009 118.935 54.065 119.304 54.2255C122.32 55.281 124.71 57.931 125.487 61.0269C125.888 62.5829 125.888 63.7988 125.939 64.6265C125.958 65.4831 126.064 65.9194 126.205 65.9323C126.353 65.9515 126.536 65.5377 126.738 64.7067C126.911 63.8533 127.068 62.477 126.619 60.7349C125.759 57.2765 123.09 54.3121 119.705 53.1379C119.295 52.9646 118.855 52.8876 118.422 52.7625C117.986 52.6663 117.546 52.6117 117.1 52.5475C116.202 52.4545 115.239 52.5572 114.405 52.7753C113.777 52.9229 113.132 52.9742 112.484 52.9454C113.401 46.3364 115.047 39.7692 117.302 33.5099C117.296 33.4682 117.312 33.4458 117.328 33.4233ZM106.333 106.651C101.178 103.927 95.9997 101.194 90.8152 98.4573C85.6468 95.7078 80.5136 92.9038 75.4831 89.9266C74.8736 89.5673 74.4244 89.2753 74.1196 89.0925C73.8181 88.9064 73.6609 88.8262 73.6609 88.8262C73.6609 88.8262 73.8213 88.8968 74.1517 89.0283C74.4822 89.1566 74.9859 89.3299 75.6468 89.5897C81.0943 91.7745 86.3013 94.5079 91.3542 97.4756C96.4168 100.44 101.354 103.603 106.353 106.619C107.058 107.052 107.071 107.03 106.333 106.651Z" fill="#56091F"/>
</g>
<path d="M36.0733 108.136C38.1041 107.132 40.1285 106.176 42.063 105.291C42.7977 104.951 43.5228 104.627 44.2286 104.306C44.9761 104.28 45.7268 104.267 46.4808 104.255C50.3467 104.171 54.2126 104.194 58.0785 104.319C62.8459 104.476 67.4882 104.915 72.092 105.727C74.0459 106.696 75.913 107.665 77.6872 108.614C71.0333 108.666 64.4212 108.486 57.7609 108.329C53.8822 108.242 50.0002 108.255 46.1279 108.374C42.7272 108.48 39.4066 108.743 36.0733 108.136ZM94.4502 118.65C94.1582 118.454 93.8534 118.252 93.539 118.04C88.9481 116.718 84.0587 116.09 79.4004 115.458C73.0192 114.588 66.5931 114.181 60.1639 113.905C54.0618 113.645 47.9501 113.603 41.8417 113.635C37.4528 113.658 32.6533 113.266 28.1714 113.943C27.2186 115.175 26.4486 116.539 25.8775 117.995C30.9273 119.028 36.4679 118.297 41.5401 118.255C47.6614 118.207 53.7891 118.255 59.9136 118.406C66.0157 118.56 72.1081 118.926 78.1973 119.308C84.3443 119.693 90.549 120.748 96.6991 120.735C96.7248 120.735 96.7473 120.735 96.7697 120.729C96.6157 120.546 96.4553 120.366 96.2853 120.193C95.7399 119.619 95.1239 119.099 94.4502 118.65ZM88.9481 127.296C81.4504 125.49 73.7122 124.909 66.0157 124.521C62.1465 124.322 58.2806 124.255 54.4051 124.258C50.9402 124.264 47.0037 123.956 43.9399 125.83C43.6319 126.022 43.6511 126.494 43.9655 126.664C47.0101 128.287 50.7477 127.909 54.0939 127.912C57.9662 127.912 61.8418 127.989 65.7141 128.063C73.4235 128.21 81.136 128.733 88.8422 128.509C89.5448 128.486 89.6154 127.456 88.9481 127.296ZM92.3007 70.1639C92.8493 70.8312 93.5166 71.3798 94.2641 71.8065C94.6395 72.0247 95.0373 72.2108 95.4608 72.3166C95.8265 72.4097 96.2981 72.5316 96.6703 72.4353C96.8692 72.3872 96.8403 72.1306 96.6927 72.0407C96.3847 71.8482 95.9677 71.7937 95.634 71.6429C95.2811 71.4857 94.9282 71.3381 94.5913 71.1456C93.9176 70.7574 93.308 70.2249 92.8076 69.6217C92.2846 68.9993 91.874 68.2839 91.5788 67.5203C91.274 66.7311 91.1393 65.8873 90.8217 65.1077C90.7768 64.9922 90.6035 64.989 90.5746 65.1206C90.395 66.0221 90.6452 66.9493 90.9596 67.7962C91.2772 68.6464 91.7232 69.4613 92.3007 70.1639ZM93.4877 78.8069C96.5644 79.4036 99.8079 78.8935 102.625 77.5364C102.946 77.3792 102.753 76.8659 102.423 77.0135C99.6732 78.2454 96.6061 78.5759 93.6513 77.9856C92.2814 77.7097 90.9596 77.222 89.7277 76.5579C88.5342 75.9098 87.453 75.0789 86.282 74.402C86.1729 74.3378 86.0639 74.4726 86.1216 74.5752C87.607 76.9878 90.8217 78.2871 93.4877 78.8069ZM109.214 79.9298C109.442 79.6506 109.035 79.3523 108.791 79.5865C106.795 81.505 104.255 82.8717 101.592 83.5871C100.068 83.9978 98.499 84.2256 96.9237 84.2897C95.3485 84.3539 93.7732 84.2994 92.198 84.3956C91.9895 84.4084 91.983 84.6908 92.1659 84.7485C95.2715 85.7816 98.9449 85.4928 102.041 84.5464C104.819 83.6898 107.357 82.1883 109.214 79.9298ZM132.278 80.1415C132.079 78.9256 131.755 77.7385 131.287 76.5996C130.357 74.3314 128.971 72.3487 127.12 70.7478C126.77 70.4462 126.305 70.9499 126.632 71.274C128.242 72.8877 129.561 74.864 130.392 76.9846C130.796 78.0176 131.114 79.0956 131.3 80.1864C131.483 81.2612 131.425 82.4675 131.81 83.4909C131.865 83.6353 132.079 83.6705 132.153 83.5198C132.631 82.5156 132.452 81.2066 132.278 80.1415ZM122.224 75.1302C122.102 74.9891 121.858 75.1655 121.925 75.3292C122.702 77.2798 123.436 79.2464 123.578 81.3638C123.645 82.4097 123.597 83.4556 123.411 84.4886C123.244 85.4639 122.83 86.4553 122.817 87.4466C122.811 87.6423 123.058 87.6904 123.18 87.5717C123.918 86.8339 124.174 85.5859 124.338 84.5849C124.521 83.4748 124.572 82.3295 124.486 81.2066C124.312 79.0314 123.687 76.8049 122.224 75.1302ZM115.923 78.6818C115.599 79.2913 115.461 79.9779 115.252 80.6388C115.034 81.3446 114.755 82.0279 114.428 82.692C113.789 84.001 112.952 85.2009 111.983 86.2885C111.024 87.3696 109.914 88.3064 108.691 89.0764C108.082 89.4582 107.463 89.7983 106.815 90.1159C106.321 90.3565 105.49 90.6805 105.339 91.2612C105.31 91.3735 105.365 91.5082 105.454 91.5788C105.971 91.9831 106.933 91.6013 107.466 91.3639C108.178 91.043 108.871 90.6645 109.516 90.2249C110.777 89.3651 111.919 88.3161 112.897 87.1418C113.87 85.974 114.662 84.6491 115.268 83.2567C115.836 81.9445 116.561 80.1832 116.256 78.7363C116.218 78.5759 116.009 78.5213 115.923 78.6818ZM123.581 61.8161C123.417 60.536 123.055 59.2335 122.423 58.0208C122.102 57.4208 121.72 56.8434 121.258 56.3236C120.793 55.8039 120.215 55.3034 119.465 55.0243C119.086 54.8928 118.817 55.2232 118.759 55.5793C118.698 55.9418 118.743 56.314 118.955 56.3974C119.872 56.7728 120.767 57.7224 121.499 58.6592C122.23 59.6281 122.811 60.7253 123.164 61.9091C123.215 62.0792 123.61 61.999 123.581 61.8161Z" fill="#F9AABB"/>
<path d="M153.767 126.295C154.181 129.875 151.095 132.461 148.371 134.235C146.994 135.13 145.544 132.962 146.94 132.153C149.516 130.655 151.419 128.826 152.667 126.09C152.91 125.548 153.703 125.74 153.767 126.295ZM149.442 138.31C146.837 138.486 144.367 138.634 142.019 137.286C140.536 136.443 139.266 138.916 140.809 139.641C143.623 140.963 147.431 141.268 149.632 138.682C149.757 138.538 149.635 138.297 149.442 138.31ZM134.502 139.266C134.264 139.067 133.863 139.285 133.915 139.596C134.267 141.768 133.786 143.879 132.609 145.705C131.682 147.136 134.107 148.297 135.012 146.857C136.555 144.393 136.905 141.245 134.502 139.266ZM161.996 132.564C159.337 131.576 156.135 133.478 154.515 135.618C153.626 136.792 155.358 138.329 156.234 137.142C157.511 135.406 159.763 133.629 161.893 133.157C162.157 133.096 162.32 132.686 161.996 132.564ZM109.946 129.625C108.958 129.343 108.098 129.67 107.123 129.831C105.977 130.02 104.838 129.946 103.706 129.715C102.381 129.449 102.012 131.476 103.321 131.775C105.297 132.227 109.301 132.404 110.154 130.013C110.219 129.834 110.132 129.673 109.946 129.625ZM105.92 127.755C106.369 126.982 106.593 126.048 107.007 125.236C107.476 124.312 107.925 123.459 108.701 122.76C109.07 122.423 108.695 121.887 108.252 122.124C106.394 123.125 104.091 124.755 103.943 127.1C103.87 128.275 105.297 128.839 105.92 127.755ZM101.059 136.828C99.2304 136.609 97.0552 134.575 96.6606 132.772C96.3526 131.374 94.1293 132.057 94.5143 133.475C95.3164 136.411 98.0883 137.925 101.008 137.697C101.495 137.665 101.569 136.889 101.059 136.828ZM107.864 139.555C107.222 139.199 106.757 138.336 106.41 137.713C106.048 137.059 105.605 136.321 105.361 135.609C105.15 134.993 104.238 135.111 104.123 135.724C103.895 136.956 103.863 137.963 104.399 139.15C104.906 140.276 105.711 141.277 106.763 141.913C108.188 142.772 109.333 140.376 107.864 139.555ZM123.77 146.144C122.198 145.663 121.646 148.38 123.331 148.73C124.239 148.916 125.118 148.996 125.99 149.359C126.828 149.712 127.537 150.27 128.274 150.793C128.637 151.05 129.288 150.729 129.054 150.244C127.999 148.008 126.086 146.853 123.77 146.144ZM129.651 139.449C129.314 140.857 128.201 142.115 126.77 142.468C125.438 142.798 123.847 142.455 122.683 141.711C122.012 142.776 120.88 143.587 119.744 144.053C118.557 144.531 116.795 144.765 115.762 143.818C114.691 142.837 114.867 141.05 115.262 139.693C113.635 139.843 111.996 139.077 111.21 137.578C110.411 136.054 110.501 133.847 112.198 133.01C112.355 132.933 112.471 133.186 112.336 133.276C111.755 133.671 111.531 134.646 111.46 135.313C111.386 136.045 111.556 136.805 111.932 137.431C112.708 138.73 114.271 139.276 115.711 138.948C115.984 138.891 116.122 139.215 116.042 139.423C115.653 140.485 115.281 142.179 116.029 143.161C116.795 144.162 118.525 143.87 119.522 143.469C120.613 143.032 121.755 142.227 122.317 141.165C122.407 140.992 122.618 140.941 122.779 141.059C124.957 142.689 128.573 142.323 129.375 139.394C129.42 139.231 129.696 139.269 129.651 139.449Z" fill="#DD7B4A"/>
<path d="M173.061 59.4228C159.949 59.4228 157.139 62.2332 157.139 75.3548C157.139 62.2332 154.328 59.4228 141.216 59.4228C154.328 59.4228 157.139 56.6092 157.139 43.4875C157.136 56.6092 159.946 59.4228 173.061 59.4228ZM54.3217 76.1569C54.3217 84.8961 52.4513 86.7697 43.7185 86.7697C52.4513 86.7697 54.3217 88.6401 54.3217 97.3793C54.3217 88.6401 56.1921 86.7697 64.9249 86.7697C56.1921 86.7697 54.3217 84.8961 54.3217 76.1569ZM114.492 93.5968C114.492 100.353 113.048 101.8 106.298 101.8C113.048 101.8 114.492 103.244 114.492 110C114.492 103.244 115.936 101.8 122.689 101.8C115.936 101.803 114.492 100.353 114.492 93.5968ZM184.848 170.905C184.848 177.659 183.405 179.106 176.655 179.106C183.405 179.106 184.848 180.553 184.848 187.306C184.848 180.553 186.292 179.106 193.045 179.106C186.298 179.109 184.848 177.659 184.848 170.905ZM77.6872 41.1198C77.6872 47.8732 76.2435 49.3201 69.4934 49.3201C76.2435 49.3201 77.6872 50.767 77.6872 57.5203C77.6872 50.767 79.1341 49.3201 85.8842 49.3201C79.1373 49.3201 77.6872 47.8732 77.6872 41.1198Z" fill="#FAEFD6"/>
<path d="M86.0574 49.0249C84.017 49.0217 81.2162 49.1276 79.657 47.5363C78.0882 45.929 78.162 43.1442 78.1556 41.0717C78.1556 40.6418 77.222 40.8151 77.222 41.1712C77.2156 43.1891 77.3182 45.9707 75.8264 47.562C74.3603 49.1308 71.6204 49.0217 69.6634 49.0249C69.4709 49.0249 69.1341 49.0827 69.0539 49.2912C68.9801 49.4869 69.118 49.6184 69.3169 49.6184C71.3606 49.6216 74.1613 49.519 75.7205 51.1102C77.2894 52.7176 77.2156 55.5023 77.222 57.5716C77.222 57.732 77.3535 57.809 77.5172 57.8251C77.5589 57.8283 77.607 57.8251 77.6519 57.8187C77.6647 57.8187 77.6744 57.8187 77.6872 57.8187C77.9214 57.7866 78.1556 57.655 78.1556 57.4754C78.162 55.4574 78.0593 52.6759 79.5512 51.0814C81.0173 49.5126 83.7571 49.6216 85.7142 49.6184C85.9067 49.6184 86.2403 49.5639 86.3237 49.3521C86.3975 49.1564 86.2596 49.0249 86.0574 49.0249ZM80.0035 49.9713C78.8165 50.5905 78.1107 51.6236 77.7193 52.8395C77.5974 52.4224 77.4402 52.015 77.2348 51.6332C76.4777 50.2344 75.0564 49.5831 73.5454 49.3008H73.5422C74.1806 49.1629 74.7934 48.9672 75.3676 48.6688C76.5547 48.0496 77.2605 47.0166 77.6519 45.8006C77.7738 46.2177 77.931 46.6251 78.1363 47.0069C78.8935 48.4057 80.3147 49.0602 81.8258 49.3393H81.829C81.197 49.4773 80.5778 49.673 80.0035 49.9713ZM193.219 178.81C191.178 178.807 188.374 178.913 186.815 177.322C185.246 175.715 185.32 172.93 185.317 170.857C185.317 170.427 184.38 170.601 184.38 170.954C184.377 172.975 184.476 175.756 182.988 177.348C181.518 178.916 178.782 178.807 176.821 178.81C176.629 178.81 176.295 178.868 176.212 179.077C176.138 179.269 176.276 179.404 176.478 179.404C178.519 179.407 181.323 179.301 182.882 180.896C184.451 182.503 184.377 185.288 184.38 187.357C184.38 187.518 184.515 187.595 184.678 187.611C184.72 187.614 184.765 187.611 184.813 187.604C184.826 187.604 184.836 187.604 184.848 187.604C185.083 187.572 185.317 187.441 185.317 187.261C185.32 185.243 185.221 182.461 186.709 180.867C188.178 179.298 190.915 179.407 192.875 179.404C193.068 179.404 193.401 179.349 193.485 179.138C193.559 178.945 193.421 178.81 193.219 178.81ZM187.168 179.763C185.981 180.383 185.275 181.416 184.887 182.631C184.762 182.211 184.605 181.804 184.399 181.422C183.642 180.023 182.221 179.372 180.713 179.093H180.707C181.345 178.955 181.958 178.756 182.532 178.458C183.719 177.838 184.428 176.805 184.816 175.589C184.941 176.006 185.095 176.417 185.304 176.796C186.058 178.198 187.482 178.849 188.99 179.128H188.993C188.358 179.266 187.739 179.465 187.168 179.763ZM122.862 101.505C120.822 101.502 118.018 101.605 116.459 100.013C114.89 98.4059 114.964 95.6212 114.96 93.5519C114.96 93.122 114.024 93.2952 114.024 93.6481C114.02 95.6661 114.12 98.4476 112.631 100.042C111.162 101.611 108.425 101.502 106.465 101.505C106.272 101.505 105.939 101.56 105.855 101.771C105.782 101.964 105.92 102.099 106.122 102.099C108.162 102.102 110.966 101.996 112.525 103.587C114.094 105.195 114.02 107.979 114.024 110.052C114.024 110.212 114.158 110.289 114.322 110.302C114.364 110.308 114.409 110.302 114.457 110.299C114.469 110.299 114.479 110.299 114.492 110.299C114.726 110.267 114.96 110.132 114.96 109.956C114.964 107.934 114.864 105.153 116.353 103.562C117.822 101.993 120.559 102.102 122.519 102.099C122.711 102.099 123.045 102.041 123.128 101.832C123.202 101.637 123.058 101.505 122.862 101.505ZM116.808 102.455C115.621 103.074 114.915 104.107 114.524 105.323C114.399 104.906 114.245 104.498 114.04 104.117C113.282 102.718 111.861 102.067 110.35 101.784H110.347C110.985 101.646 111.598 101.451 112.172 101.152C113.359 100.533 114.065 99.4999 114.457 98.284C114.579 98.7011 114.736 99.1085 114.941 99.4903C115.698 100.889 117.119 101.54 118.627 101.823H118.634C117.995 101.961 117.383 102.156 116.808 102.455ZM65.0981 86.4745C62.7593 86.4713 60.0484 86.5162 57.9213 85.3837C56.2081 84.4694 55.4542 82.7337 55.1205 80.8986C54.8318 79.3266 54.7933 77.7097 54.7901 76.112C54.7901 75.6821 53.8533 75.8553 53.8533 76.2082C53.8501 78.5502 53.8854 81.2419 52.8042 83.385C51.9476 85.0886 50.3306 85.8425 48.5244 86.1633C47.0037 86.4328 45.4381 86.4713 43.8917 86.4745C43.6992 86.4745 43.3656 86.5291 43.2822 86.7408C43.2084 86.9333 43.3463 87.068 43.5485 87.068C45.8873 87.0713 48.5982 87.0263 50.7253 88.1588C52.4417 89.0732 53.1924 90.8088 53.5292 92.6439C53.818 94.216 53.8533 95.8329 53.8597 97.4306C53.8597 97.591 53.9912 97.668 54.1581 97.6809C54.4308 97.7065 54.7933 97.5525 54.7933 97.3344C54.7997 94.9924 54.7612 92.2975 55.8456 90.1544C56.7022 88.454 58.3159 87.7001 60.1221 87.3792C61.6461 87.1098 63.2085 87.0713 64.7548 87.068C64.9473 87.068 65.2842 87.0135 65.3644 86.8018C65.4382 86.6029 65.3002 86.4745 65.0981 86.4745ZM57.3663 87.6872C55.7108 88.5599 54.8093 90.0677 54.357 91.8034C54.1901 91.1104 53.9495 90.4399 53.6095 89.8175C52.6374 88.0113 50.799 87.1771 48.8581 86.8242C48.7394 86.8018 48.6175 86.7921 48.4987 86.7697C49.474 86.59 50.4205 86.3109 51.2867 85.8521C52.9421 84.9795 53.8437 83.4684 54.2928 81.736C54.4628 82.429 54.7035 83.0963 55.0403 83.7219C56.0156 85.5249 57.8539 86.359 59.7917 86.7151C59.9136 86.7376 60.0355 86.7472 60.1542 86.7697C59.1725 86.9493 58.2293 87.2285 57.3663 87.6872ZM173.231 59.1276C171.063 59.1276 168.875 59.0731 166.725 58.7555C165.211 58.5341 163.674 58.1716 162.32 57.4401C159.709 56.0285 158.573 53.3592 158.079 50.5552C157.665 48.21 157.607 45.8135 157.601 43.4362C157.601 43.0063 156.667 43.1795 156.667 43.5324C156.667 45.6659 156.613 47.809 156.314 49.9264C156.099 51.4632 155.753 53.0191 155.044 54.4083C153.719 56.9941 151.21 58.1555 148.454 58.6464C146.128 59.0634 143.738 59.118 141.387 59.1244C141.194 59.1244 140.857 59.1789 140.777 59.3907C140.703 59.5832 140.841 59.7147 141.04 59.7147C143.212 59.7147 145.4 59.7693 147.55 60.0869C149.064 60.3082 150.601 60.6708 151.951 61.4022C154.566 62.8139 155.698 65.4831 156.196 68.2871C156.606 70.6323 156.667 73.0289 156.671 75.4061C156.671 75.5666 156.805 75.6436 156.969 75.6596C157.007 75.6628 157.046 75.6596 157.088 75.6532C157.107 75.6532 157.12 75.6532 157.139 75.6532C157.373 75.6211 157.607 75.4896 157.607 75.3099C157.607 73.1764 157.662 71.0333 157.96 68.9159C158.175 67.3792 158.518 65.8232 159.231 64.434C160.556 61.8482 163.064 60.6868 165.82 60.1959C168.146 59.7789 170.536 59.7243 172.888 59.7211C173.081 59.7211 173.414 59.6634 173.498 59.4548C173.571 59.2559 173.433 59.1276 173.231 59.1276ZM161.762 60.9306C159.038 62.3872 157.739 65.0468 157.184 67.9887C157.171 68.0625 157.161 68.1363 157.149 68.2101C156.905 66.7696 156.523 65.3419 155.827 64.0522C154.383 61.3862 151.659 60.1639 148.788 59.6409C148.329 59.5575 147.867 59.4901 147.408 59.4292C149.202 59.1886 150.947 58.7426 152.513 57.9053C155.236 56.4519 156.533 53.7891 157.088 50.8472C157.104 50.7734 157.11 50.7028 157.126 50.629C157.367 52.0695 157.748 53.4972 158.445 54.7869C159.892 57.4529 162.615 58.672 165.487 59.195C165.945 59.2784 166.407 59.349 166.866 59.4067C165.073 59.6505 163.324 60.0965 161.762 60.9306Z" fill="#56091F"/>
</g>
<defs>
<clipPath id="clip0_145_3">
<rect width="239" height="239" fill="white"/>
</clipPath>
</defs>
</svg>
