<svg xmlns="http://www.w3.org/2000/svg" xmlns:xlink="http://www.w3.org/1999/xlink" width="1146" zoomAndPan="magnify" viewBox="0 0 859.5 116.999995" height="156" preserveAspectRatio="xMidYMid meet" version="1.0"><defs><clipPath id="fce7682211"><path d="M 0 13 L 95.945312 13 L 95.945312 70 L 0 70 Z M 0 13 " clip-rule="nonzero"/></clipPath><clipPath id="2fc50999f3"><path d="M 31 68 L 64 68 L 64 116.871094 L 31 116.871094 Z M 31 68 " clip-rule="nonzero"/></clipPath><clipPath id="77c451fb44"><path d="M 63 68 L 95.945312 68 L 95.945312 115 L 63 115 Z M 63 68 " clip-rule="nonzero"/></clipPath><clipPath id="6eeabc09f3"><path d="M 0 0.0351562 L 95.945312 0.0351562 L 95.945312 14 L 0 14 Z M 0 0.0351562 " clip-rule="nonzero"/></clipPath><clipPath id="59f59f3775"><path d="M 95.277344 13 L 191 13 L 191 70 L 95.277344 70 Z M 95.277344 13 " clip-rule="nonzero"/></clipPath><clipPath id="27e528c740"><path d="M 95.277344 68 L 128 68 L 128 115 L 95.277344 115 Z M 95.277344 68 " clip-rule="nonzero"/></clipPath><clipPath id="6cf3810d7b"><path d="M 126 68 L 160 68 L 160 116.871094 L 126 116.871094 Z M 126 68 " clip-rule="nonzero"/></clipPath><clipPath id="4a6120a8d6"><path d="M 95.277344 0.0351562 L 191 0.0351562 L 191 14 L 95.277344 14 Z M 95.277344 0.0351562 " clip-rule="nonzero"/></clipPath><clipPath id="a890bcfcaa"><path d="M 190.566406 13 L 286.511719 13 L 286.511719 70 L 190.566406 70 Z M 190.566406 13 " clip-rule="nonzero"/></clipPath><clipPath id="3f0517605e"><path d="M 190.566406 68 L 223 68 L 223 115 L 190.566406 115 Z M 190.566406 68 " clip-rule="nonzero"/></clipPath><clipPath id="73454d21b0"><path d="M 222 68 L 255 68 L 255 116.871094 L 222 116.871094 Z M 222 68 " clip-rule="nonzero"/></clipPath><clipPath id="79058f5c32"><path d="M 254 68 L 286.511719 68 L 286.511719 115 L 254 115 Z M 254 68 " clip-rule="nonzero"/></clipPath><clipPath id="263e4dad59"><path d="M 190.566406 0.0351562 L 286.511719 0.0351562 L 286.511719 14 L 190.566406 14 Z M 190.566406 0.0351562 " clip-rule="nonzero"/></clipPath><clipPath id="6e72df2df3"><path d="M 285.847656 13 L 381.792969 13 L 381.792969 70 L 285.847656 70 Z M 285.847656 13 " clip-rule="nonzero"/></clipPath><clipPath id="7c16d33e6b"><path d="M 285.847656 68 L 318 68 L 318 115 L 285.847656 115 Z M 285.847656 68 " clip-rule="nonzero"/></clipPath><clipPath id="cc3a42a577"><path d="M 317 68 L 350 68 L 350 116.871094 L 317 116.871094 Z M 317 68 " clip-rule="nonzero"/></clipPath><clipPath id="a4178f7d35"><path d="M 349 68 L 381.792969 68 L 381.792969 115 L 349 115 Z M 349 68 " clip-rule="nonzero"/></clipPath><clipPath id="7845ad875d"><path d="M 285.847656 0.0351562 L 381.792969 0.0351562 L 381.792969 14 L 285.847656 14 Z M 285.847656 0.0351562 " clip-rule="nonzero"/></clipPath><clipPath id="11f9bddef9"><path d="M 381.136719 13 L 477 13 L 477 70 L 381.136719 70 Z M 381.136719 13 " clip-rule="nonzero"/></clipPath><clipPath id="2cf09b3d03"><path d="M 381.136719 68 L 414 68 L 414 115 L 381.136719 115 Z M 381.136719 68 " clip-rule="nonzero"/></clipPath><clipPath id="b94218a911"><path d="M 412 68 L 445 68 L 445 116.871094 L 412 116.871094 Z M 412 68 " clip-rule="nonzero"/></clipPath><clipPath id="6c7e238a07"><path d="M 381.136719 0.0351562 L 477 0.0351562 L 477 14 L 381.136719 14 Z M 381.136719 0.0351562 " clip-rule="nonzero"/></clipPath><clipPath id="de3d1b8f8d"><path d="M 476.414062 13 L 572.359375 13 L 572.359375 70 L 476.414062 70 Z M 476.414062 13 " clip-rule="nonzero"/></clipPath><clipPath id="fe99e2cf41"><path d="M 476.414062 68 L 509 68 L 509 115 L 476.414062 115 Z M 476.414062 68 " clip-rule="nonzero"/></clipPath><clipPath id="6ea76db5c0"><path d="M 507 68 L 541 68 L 541 116.871094 L 507 116.871094 Z M 507 68 " clip-rule="nonzero"/></clipPath><clipPath id="0a41ab0bd3"><path d="M 539 68 L 572.359375 68 L 572.359375 115 L 539 115 Z M 539 68 " clip-rule="nonzero"/></clipPath><clipPath id="27503c7448"><path d="M 476.414062 0.0351562 L 572.359375 0.0351562 L 572.359375 14 L 476.414062 14 Z M 476.414062 0.0351562 " clip-rule="nonzero"/></clipPath><clipPath id="7cce55f5cc"><path d="M 571.703125 13 L 667.648438 13 L 667.648438 70 L 571.703125 70 Z M 571.703125 13 " clip-rule="nonzero"/></clipPath><clipPath id="02ffec0745"><path d="M 571.703125 68 L 604 68 L 604 115 L 571.703125 115 Z M 571.703125 68 " clip-rule="nonzero"/></clipPath><clipPath id="8c86f09c05"><path d="M 603 68 L 636 68 L 636 116.871094 L 603 116.871094 Z M 603 68 " clip-rule="nonzero"/></clipPath><clipPath id="6f257fcf30"><path d="M 635 68 L 667.648438 68 L 667.648438 115 L 635 115 Z M 635 68 " clip-rule="nonzero"/></clipPath><clipPath id="5a78a85785"><path d="M 571.703125 0.0351562 L 667.648438 0.0351562 L 667.648438 14 L 571.703125 14 Z M 571.703125 0.0351562 " clip-rule="nonzero"/></clipPath><clipPath id="0681d40e52"><path d="M 667 13 L 762.925781 13 L 762.925781 70 L 667 70 Z M 667 13 " clip-rule="nonzero"/></clipPath><clipPath id="d9e64f13ef"><path d="M 698 68 L 731 68 L 731 116.871094 L 698 116.871094 Z M 698 68 " clip-rule="nonzero"/></clipPath><clipPath id="1b560a47e0"><path d="M 730 68 L 762.925781 68 L 762.925781 115 L 730 115 Z M 730 68 " clip-rule="nonzero"/></clipPath><clipPath id="dbcffecf4c"><path d="M 667 0.0351562 L 762.925781 0.0351562 L 762.925781 14 L 667 14 Z M 667 0.0351562 " clip-rule="nonzero"/></clipPath><clipPath id="c672883dcc"><path d="M 762.695312 13 L 858.640625 13 L 858.640625 70 L 762.695312 70 Z M 762.695312 13 " clip-rule="nonzero"/></clipPath><clipPath id="4807e42a95"><path d="M 762.695312 68 L 795 68 L 795 115 L 762.695312 115 Z M 762.695312 68 " clip-rule="nonzero"/></clipPath><clipPath id="212bc3ffbc"><path d="M 794 68 L 827 68 L 827 116.871094 L 794 116.871094 Z M 794 68 " clip-rule="nonzero"/></clipPath><clipPath id="1bb9c88083"><path d="M 826 68 L 858.640625 68 L 858.640625 115 L 826 115 Z M 826 68 " clip-rule="nonzero"/></clipPath><clipPath id="0ac4855ddc"><path d="M 762.695312 0.0351562 L 858.640625 0.0351562 L 858.640625 14 L 762.695312 14 Z M 762.695312 0.0351562 " clip-rule="nonzero"/></clipPath></defs><g clip-path="url(#fce7682211)"><path fill="#f6f7e9" d="M 0.015625 13.066406 L 95.691406 13.066406 L 95.691406 69.476562 L 0.015625 69.476562 Z M 0.015625 13.066406 " fill-opacity="1" fill-rule="nonzero"/></g><path fill="#f6f7e9" d="M 31.914062 114.042969 L 31.914062 68.921875 L 0.015625 68.921875 C 0.015625 89.761719 13.335938 107.480469 31.914062 114.042969 Z M 31.914062 114.042969 " fill-opacity="1" fill-rule="nonzero"/><g clip-path="url(#2fc50999f3)"><path fill="#f6f7e9" d="M 63.792969 68.921875 L 31.570312 68.921875 L 31.570312 113.910156 C 36.566406 115.667969 42.265625 116.761719 47.855469 116.761719 C 53.441406 116.761719 58.820312 115.804688 63.792969 114.042969 Z M 63.792969 68.921875 " fill-opacity="1" fill-rule="nonzero"/></g><g clip-path="url(#77c451fb44)"><path fill="#f6f7e9" d="M 95.691406 68.921875 L 63.449219 68.921875 L 63.449219 114.15625 C 82.03125 107.59375 95.691406 89.761719 95.691406 68.921875 Z M 95.691406 68.921875 " fill-opacity="1" fill-rule="nonzero"/></g><g clip-path="url(#6eeabc09f3)"><path fill="#f6f7e9" d="M 0.015625 -0.0585938 L 95.691406 -0.0585938 L 95.691406 13.546875 L 0.015625 13.546875 Z M 0.015625 -0.0585938 " fill-opacity="1" fill-rule="nonzero"/></g><g clip-path="url(#59f59f3775)"><path fill="#dc5274" d="M 95.296875 13.066406 L 190.972656 13.066406 L 190.972656 69.476562 L 95.296875 69.476562 Z M 95.296875 13.066406 " fill-opacity="1" fill-rule="nonzero"/></g><g clip-path="url(#27e528c740)"><path fill="#dc5274" d="M 127.195312 114.042969 L 127.195312 68.921875 L 95.296875 68.921875 C 95.296875 89.761719 108.613281 107.480469 127.195312 114.042969 Z M 127.195312 114.042969 " fill-opacity="1" fill-rule="nonzero"/></g><g clip-path="url(#6cf3810d7b)"><path fill="#dc5274" d="M 159.074219 68.921875 L 126.851562 68.921875 L 126.851562 113.910156 C 131.84375 115.667969 137.546875 116.761719 143.132812 116.761719 C 148.722656 116.761719 154.097656 115.804688 159.074219 114.042969 Z M 159.074219 68.921875 " fill-opacity="1" fill-rule="nonzero"/></g><path fill="#dc5274" d="M 190.972656 68.921875 L 158.730469 68.921875 L 158.730469 114.15625 C 177.308594 107.59375 190.972656 89.761719 190.972656 68.921875 Z M 190.972656 68.921875 " fill-opacity="1" fill-rule="nonzero"/><g clip-path="url(#4a6120a8d6)"><path fill="#dc5274" d="M 95.296875 -0.0585938 L 190.972656 -0.0585938 L 190.972656 13.546875 L 95.296875 13.546875 Z M 95.296875 -0.0585938 " fill-opacity="1" fill-rule="nonzero"/></g><g clip-path="url(#a890bcfcaa)"><path fill="#f57e9a" d="M 190.585938 13.066406 L 286.261719 13.066406 L 286.261719 69.476562 L 190.585938 69.476562 Z M 190.585938 13.066406 " fill-opacity="1" fill-rule="nonzero"/></g><g clip-path="url(#3f0517605e)"><path fill="#f57e9a" d="M 222.484375 114.042969 L 222.484375 68.921875 L 190.585938 68.921875 C 190.585938 89.761719 203.902344 107.480469 222.484375 114.042969 Z M 222.484375 114.042969 " fill-opacity="1" fill-rule="nonzero"/></g><g clip-path="url(#73454d21b0)"><path fill="#f57e9a" d="M 254.363281 68.921875 L 222.140625 68.921875 L 222.140625 113.910156 C 227.132812 115.667969 232.835938 116.761719 238.421875 116.761719 C 244.011719 116.761719 249.386719 115.804688 254.363281 114.042969 Z M 254.363281 68.921875 " fill-opacity="1" fill-rule="nonzero"/></g><g clip-path="url(#79058f5c32)"><path fill="#f57e9a" d="M 286.261719 68.921875 L 254.019531 68.921875 L 254.019531 114.15625 C 272.597656 107.59375 286.261719 89.761719 286.261719 68.921875 Z M 286.261719 68.921875 " fill-opacity="1" fill-rule="nonzero"/></g><g clip-path="url(#263e4dad59)"><path fill="#f57e9a" d="M 190.585938 -0.0585938 L 286.261719 -0.0585938 L 286.261719 13.546875 L 190.585938 13.546875 Z M 190.585938 -0.0585938 " fill-opacity="1" fill-rule="nonzero"/></g><g clip-path="url(#6e72df2df3)"><path fill="#f6f7e9" d="M 285.863281 13.066406 L 381.539062 13.066406 L 381.539062 69.476562 L 285.863281 69.476562 Z M 285.863281 13.066406 " fill-opacity="1" fill-rule="nonzero"/></g><g clip-path="url(#7c16d33e6b)"><path fill="#f6f7e9" d="M 317.761719 114.042969 L 317.761719 68.921875 L 285.863281 68.921875 C 285.863281 89.761719 299.183594 107.480469 317.761719 114.042969 Z M 317.761719 114.042969 " fill-opacity="1" fill-rule="nonzero"/></g><g clip-path="url(#cc3a42a577)"><path fill="#f6f7e9" d="M 349.640625 68.921875 L 317.417969 68.921875 L 317.417969 113.910156 C 322.414062 115.667969 328.113281 116.761719 333.703125 116.761719 C 339.289062 116.761719 344.667969 115.804688 349.640625 114.042969 Z M 349.640625 68.921875 " fill-opacity="1" fill-rule="nonzero"/></g><g clip-path="url(#a4178f7d35)"><path fill="#f6f7e9" d="M 381.539062 68.921875 L 349.296875 68.921875 L 349.296875 114.15625 C 367.878906 107.59375 381.539062 89.761719 381.539062 68.921875 Z M 381.539062 68.921875 " fill-opacity="1" fill-rule="nonzero"/></g><g clip-path="url(#7845ad875d)"><path fill="#f6f7e9" d="M 285.863281 -0.0585938 L 381.539062 -0.0585938 L 381.539062 13.546875 L 285.863281 13.546875 Z M 285.863281 -0.0585938 " fill-opacity="1" fill-rule="nonzero"/></g><g clip-path="url(#11f9bddef9)"><path fill="#dc5274" d="M 381.152344 13.066406 L 476.828125 13.066406 L 476.828125 69.476562 L 381.152344 69.476562 Z M 381.152344 13.066406 " fill-opacity="1" fill-rule="nonzero"/></g><g clip-path="url(#2cf09b3d03)"><path fill="#dc5274" d="M 413.050781 114.042969 L 413.050781 68.921875 L 381.152344 68.921875 C 381.152344 89.761719 394.472656 107.480469 413.050781 114.042969 Z M 413.050781 114.042969 " fill-opacity="1" fill-rule="nonzero"/></g><g clip-path="url(#b94218a911)"><path fill="#dc5274" d="M 444.929688 68.921875 L 412.707031 68.921875 L 412.707031 113.910156 C 417.699219 115.667969 423.402344 116.761719 428.992188 116.761719 C 434.578125 116.761719 439.953125 115.804688 444.929688 114.042969 Z M 444.929688 68.921875 " fill-opacity="1" fill-rule="nonzero"/></g><path fill="#dc5274" d="M 476.828125 68.921875 L 444.585938 68.921875 L 444.585938 114.15625 C 463.164062 107.59375 476.828125 89.761719 476.828125 68.921875 Z M 476.828125 68.921875 " fill-opacity="1" fill-rule="nonzero"/><g clip-path="url(#6c7e238a07)"><path fill="#dc5274" d="M 381.152344 -0.0585938 L 476.828125 -0.0585938 L 476.828125 13.546875 L 381.152344 13.546875 Z M 381.152344 -0.0585938 " fill-opacity="1" fill-rule="nonzero"/></g><g clip-path="url(#de3d1b8f8d)"><path fill="#f57e9a" d="M 476.433594 13.066406 L 572.105469 13.066406 L 572.105469 69.476562 L 476.433594 69.476562 Z M 476.433594 13.066406 " fill-opacity="1" fill-rule="nonzero"/></g><g clip-path="url(#fe99e2cf41)"><path fill="#f57e9a" d="M 508.328125 114.042969 L 508.328125 68.921875 L 476.433594 68.921875 C 476.433594 89.761719 489.75 107.480469 508.328125 114.042969 Z M 508.328125 114.042969 " fill-opacity="1" fill-rule="nonzero"/></g><g clip-path="url(#6ea76db5c0)"><path fill="#f57e9a" d="M 540.207031 68.921875 L 507.984375 68.921875 L 507.984375 113.910156 C 512.980469 115.667969 518.683594 116.761719 524.269531 116.761719 C 529.855469 116.761719 535.234375 115.804688 540.207031 114.042969 Z M 540.207031 68.921875 " fill-opacity="1" fill-rule="nonzero"/></g><g clip-path="url(#0a41ab0bd3)"><path fill="#f57e9a" d="M 572.105469 68.921875 L 539.863281 68.921875 L 539.863281 114.15625 C 558.445312 107.59375 572.105469 89.761719 572.105469 68.921875 Z M 572.105469 68.921875 " fill-opacity="1" fill-rule="nonzero"/></g><g clip-path="url(#27503c7448)"><path fill="#f57e9a" d="M 476.433594 -0.0585938 L 572.105469 -0.0585938 L 572.105469 13.546875 L 476.433594 13.546875 Z M 476.433594 -0.0585938 " fill-opacity="1" fill-rule="nonzero"/></g><g clip-path="url(#7cce55f5cc)"><path fill="#f6f7e9" d="M 571.71875 13.066406 L 667.394531 13.066406 L 667.394531 69.476562 L 571.71875 69.476562 Z M 571.71875 13.066406 " fill-opacity="1" fill-rule="nonzero"/></g><g clip-path="url(#02ffec0745)"><path fill="#f6f7e9" d="M 603.617188 114.042969 L 603.617188 68.921875 L 571.71875 68.921875 C 571.71875 89.761719 585.039062 107.480469 603.617188 114.042969 Z M 603.617188 114.042969 " fill-opacity="1" fill-rule="nonzero"/></g><g clip-path="url(#8c86f09c05)"><path fill="#f6f7e9" d="M 635.496094 68.921875 L 603.273438 68.921875 L 603.273438 113.910156 C 608.269531 115.667969 613.96875 116.761719 619.558594 116.761719 C 625.144531 116.761719 630.523438 115.804688 635.496094 114.042969 Z M 635.496094 68.921875 " fill-opacity="1" fill-rule="nonzero"/></g><g clip-path="url(#6f257fcf30)"><path fill="#f6f7e9" d="M 667.394531 68.921875 L 635.152344 68.921875 L 635.152344 114.15625 C 653.734375 107.59375 667.394531 89.761719 667.394531 68.921875 Z M 667.394531 68.921875 " fill-opacity="1" fill-rule="nonzero"/></g><g clip-path="url(#5a78a85785)"><path fill="#f6f7e9" d="M 571.71875 -0.0585938 L 667.394531 -0.0585938 L 667.394531 13.546875 L 571.71875 13.546875 Z M 571.71875 -0.0585938 " fill-opacity="1" fill-rule="nonzero"/></g><g clip-path="url(#0681d40e52)"><path fill="#dc5274" d="M 667 13.066406 L 762.675781 13.066406 L 762.675781 69.476562 L 667 69.476562 Z M 667 13.066406 " fill-opacity="1" fill-rule="nonzero"/></g><path fill="#dc5274" d="M 698.898438 114.042969 L 698.898438 68.921875 L 667 68.921875 C 667 89.761719 680.316406 107.480469 698.898438 114.042969 Z M 698.898438 114.042969 " fill-opacity="1" fill-rule="nonzero"/><g clip-path="url(#d9e64f13ef)"><path fill="#dc5274" d="M 730.777344 68.921875 L 698.554688 68.921875 L 698.554688 113.910156 C 703.546875 115.667969 709.25 116.761719 714.835938 116.761719 C 720.425781 116.761719 725.800781 115.804688 730.777344 114.042969 Z M 730.777344 68.921875 " fill-opacity="1" fill-rule="nonzero"/></g><g clip-path="url(#1b560a47e0)"><path fill="#dc5274" d="M 762.675781 68.921875 L 730.433594 68.921875 L 730.433594 114.15625 C 749.011719 107.59375 762.675781 89.761719 762.675781 68.921875 Z M 762.675781 68.921875 " fill-opacity="1" fill-rule="nonzero"/></g><g clip-path="url(#dbcffecf4c)"><path fill="#dc5274" d="M 667 -0.0585938 L 762.675781 -0.0585938 L 762.675781 13.546875 L 667 13.546875 Z M 667 -0.0585938 " fill-opacity="1" fill-rule="nonzero"/></g><g clip-path="url(#c672883dcc)"><path fill="#f57e9a" d="M 762.710938 13.066406 L 858.386719 13.066406 L 858.386719 69.476562 L 762.710938 69.476562 Z M 762.710938 13.066406 " fill-opacity="1" fill-rule="nonzero"/></g><g clip-path="url(#4807e42a95)"><path fill="#f57e9a" d="M 794.609375 114.042969 L 794.609375 68.921875 L 762.710938 68.921875 C 762.710938 89.761719 776.03125 107.480469 794.609375 114.042969 Z M 794.609375 114.042969 " fill-opacity="1" fill-rule="nonzero"/></g><g clip-path="url(#212bc3ffbc)"><path fill="#f57e9a" d="M 826.488281 68.921875 L 794.265625 68.921875 L 794.265625 113.910156 C 799.261719 115.667969 804.960938 116.761719 810.550781 116.761719 C 816.136719 116.761719 821.515625 115.804688 826.488281 114.042969 Z M 826.488281 68.921875 " fill-opacity="1" fill-rule="nonzero"/></g><g clip-path="url(#1bb9c88083)"><path fill="#f57e9a" d="M 858.386719 68.921875 L 826.144531 68.921875 L 826.144531 114.15625 C 844.726562 107.59375 858.386719 89.761719 858.386719 68.921875 Z M 858.386719 68.921875 " fill-opacity="1" fill-rule="nonzero"/></g><g clip-path="url(#0ac4855ddc)"><path fill="#f57e9a" d="M 762.710938 -0.0585938 L 858.386719 -0.0585938 L 858.386719 13.546875 L 762.710938 13.546875 Z M 762.710938 -0.0585938 " fill-opacity="1" fill-rule="nonzero"/></g></svg>